<?xml version="1.0" encoding="utf-8"?>
<!-- Generator: Adobe Illustrator 24.0.1, SVG Export Plug-In . SVG Version: 6.00 Build 0)  -->
<svg version="1.1" xmlns="http://www.w3.org/2000/svg" xmlns:xlink="http://www.w3.org/1999/xlink" x="0px" y="0px"
	 viewBox="0 0 209.3 133.6" style="enable-background:new 0 0 209.3 133.6;" xml:space="preserve">
<style type="text/css">
	.st0{display:none;}
	.st1{display:inline;}
	.st2{fill:#5F902B;}
	.st3{fill:#60912C;}
	.st4{fill:#61912D;}
	.st5{fill:#62922E;}
	.st6{fill:#62922F;}
	.st7{fill:#639330;}
	.st8{fill:#649331;}
	.st9{fill:#659432;}
	.st10{fill:#669533;}
	.st11{fill:#679534;}
	.st12{fill:#689635;}
	.st13{fill:#689636;}
	.st14{fill:#699737;}
	.st15{fill:#6A9738;}
	.st16{fill:#6B9839;}
	.st17{fill:#6C983A;}
	.st18{fill:#6D993B;}
	.st19{fill:#6E9A3C;}
	.st20{fill:#6E9A3D;}
	.st21{fill:#6F9B3E;}
	.st22{fill:#709B3F;}
	.st23{fill:#719C40;}
	.st24{fill:#729C41;}
	.st25{fill:#739D42;}
	.st26{fill:#749E43;}
	.st27{fill:#759E44;}
	.st28{fill:#759F45;}
	.st29{fill:#769F46;}
	.st30{fill:#77A047;}
	.st31{fill:#78A048;}
	.st32{fill:#79A149;}
	.st33{fill:#7AA24A;}
	.st34{fill:#7BA24B;}
	.st35{fill:#7BA34C;}
	.st36{fill:#7CA34D;}
	.st37{fill:#7DA44E;}
	.st38{fill:#7EA44F;}
	.st39{fill:#7FA550;}
	.st40{fill:#80A551;}
	.st41{fill:#81A652;}
	.st42{fill:#81A753;}
	.st43{fill:#82A754;}
	.st44{fill:#83A855;}
	.st45{fill:#84A856;}
	.st46{fill:#85A957;}
	.st47{fill:#86A958;}
	.st48{fill:#87AA59;}
	.st49{fill:#87AB5A;}
	.st50{fill:#88AB5B;}
	.st51{fill:#89AC5C;}
	.st52{fill:#8AAC5D;}
	.st53{fill:#8BAD5E;}
	.st54{fill:#8CAD5F;}
	.st55{fill:#8DAE60;}
	.st56{fill:#8DAF61;}
	.st57{fill:#8EAF62;}
	.st58{fill:#8FB063;}
	.st59{fill:#90B064;}
	.st60{fill:#91B165;}
	.st61{fill:#92B166;}
	.st62{fill:#93B267;}
	.st63{fill:#93B368;}
	.st64{fill:#94B368;}
	.st65{fill:#95B469;}
	.st66{fill:#96B46A;}
	.st67{fill:#97B56B;}
	.st68{fill:#98B56C;}
	.st69{fill:#99B66D;}
	.st70{fill:#9AB66E;}
	.st71{fill:#9AB76F;}
	.st72{fill:#9BB870;}
	.st73{fill:#9CB871;}
	.st74{fill:#9DB972;}
	.st75{fill:#9EB973;}
	.st76{fill:#9FBA74;}
	.st77{fill:#A0BA75;}
	.st78{fill:#A0BB76;}
	.st79{fill:#A1BC77;}
	.st80{fill:#A2BC78;}
	.st81{fill:#A3BD79;}
	.st82{fill:#A4BD7A;}
	.st83{fill:#A5BE7B;}
	.st84{fill:#A6BE7C;}
	.st85{fill:#A6BF7D;}
	.st86{fill:#A7C07E;}
	.st87{fill:#A8C07F;}
	.st88{fill:#A9C180;}
	.st89{fill:#AAC181;}
	.st90{fill:#ABC282;}
	.st91{fill:#ACC283;}
	.st92{fill:#ACC384;}
	.st93{fill:#ADC385;}
	.st94{fill:#AEC486;}
	.st95{fill:#AFC587;}
	.st96{fill:#B0C588;}
	.st97{fill:#B1C689;}
	.st98{fill:#B2C68A;}
	.st99{fill:#B2C78B;}
	.st100{fill:#B3C78C;}
	.st101{fill:#B4C88D;}
	.st102{fill:#B5C98E;}
	.st103{fill:#B6C98F;}
	.st104{fill:#B7CA90;}
	.st105{fill:#B8CA91;}
	.st106{fill:#B9CB92;}
	.st107{fill:#B9CB93;}
	.st108{fill:#BACC94;}
	.st109{fill:#BBCD95;}
	.st110{fill:#BCCD96;}
	.st111{fill:#BDCE97;}
	.st112{fill:#BECE98;}
	.st113{fill:#BFCF99;}
	.st114{fill:#BFCF9A;}
	.st115{fill:#C0D09B;}
	.st116{fill:#C1D09C;}
	.st117{fill:#C2D19D;}
	.st118{fill:#C3D29E;}
	.st119{fill:#C4D29F;}
	.st120{fill:#C5D3A0;}
	.st121{fill:#C5D3A1;}
	.st122{fill:#C6D4A2;}
	.st123{fill:#C7D4A3;}
	.st124{fill:#C8D5A4;}
	.st125{display:inline;opacity:0.5;}
	.st126{fill:url(#SVGID_1_);}
	.st127{display:inline;opacity:0.66;fill:#FFFFFF;}
	.st128{display:inline;opacity:0.77;fill:#FFFFFF;}
	.st129{fill:#575757;}
	.st130{fill:#619623;}
</style>
<g id="Ebene_1">
	<title>evosoft_logo_spatial_coloured__transp</title>
	<g class="st0">
		<g class="st1">
			<path class="st2" d="M137.3,40.1c0,18.4-14.9,33.3-33.3,33.3c-18.4,0-33.3-14.9-33.3-33.3c0-18.4,14.9-33.3,33.3-33.3
				C122.4,6.8,137.3,21.7,137.3,40.1z"/>
			<path class="st3" d="M104,72.9c-18.3,0-33.1-14.7-33.1-33c0-18.2,14.8-33.1,33-33.1c18.3,0,33.1,14.7,33.1,33
				C137,58.1,122.2,72.9,104,72.9z"/>
			<path class="st4" d="M103.9,72.6C85.7,72.6,71,58,71,39.9c0-18.1,14.7-32.9,32.8-32.9c18.2-0.1,32.9,14.6,32.9,32.7
				C136.7,57.8,122,72.5,103.9,72.6z"/>
			<path class="st5" d="M103.8,72.2c-18,0.1-32.7-14.4-32.8-32.4c0-18,14.5-32.6,32.6-32.7c18-0.1,32.7,14.4,32.8,32.4
				C136.4,57.4,121.9,72.1,103.8,72.2z"/>
			<path class="st6" d="M103.7,71.8c-17.9,0.1-32.5-14.3-32.6-32.1C71.1,21.8,85.5,7.2,103.5,7.1C121.4,7,136,21.4,136.1,39.2
				C136.2,57.1,121.7,71.7,103.7,71.8z"/>
			<path class="st7" d="M103.6,71.4c-17.8,0.1-32.4-14.1-32.4-31.9C71.1,21.8,85.5,7.3,103.3,7.2C121.2,7,135.7,21.3,135.8,39
				C135.9,56.7,121.5,71.2,103.6,71.4z"/>
			<path class="st8" d="M103.6,71c-17.7,0.2-32.2-14-32.3-31.6c-0.1-17.6,14.2-32,31.9-32.2c17.7-0.2,32.2,14,32.3,31.6
				C135.6,56.4,121.3,70.8,103.6,71z"/>
			<path class="st9" d="M103.5,70.6c-17.6,0.2-32-13.8-32.1-31.3c-0.1-17.5,14.1-31.8,31.7-32c17.6-0.2,32,13.8,32.1,31.3
				C135.3,56.1,121.1,70.4,103.5,70.6z"/>
			<path class="st10" d="M103.4,70.2c-17.5,0.2-31.8-13.6-31.9-31c-0.1-17.4,14-31.6,31.5-31.9c17.5-0.2,31.8,13.6,31.9,31
				C135,55.7,120.9,70,103.4,70.2z"/>
			<path class="st11" d="M103.3,69.8c-17.4,0.3-31.6-13.5-31.8-30.7C71.4,21.9,85.4,7.7,102.8,7.5c17.4-0.3,31.6,13.5,31.8,30.7
				C134.7,55.4,120.7,69.6,103.3,69.8z"/>
			<path class="st12" d="M103.2,69.5C85.9,69.8,71.8,56.1,71.6,39c-0.2-17.1,13.7-31.2,31-31.5c17.3-0.3,31.4,13.3,31.6,30.4
				C134.4,55.1,120.5,69.2,103.2,69.5z"/>
			<path class="st13" d="M103.1,69.1C86,69.4,71.9,55.9,71.7,38.9c-0.2-17,13.6-31,30.8-31.3c17.2-0.3,31.3,13.2,31.4,30.1
				C134.1,54.7,120.3,68.7,103.1,69.1z"/>
			<path class="st14" d="M103.1,68.7C86,69,72,55.7,71.8,38.8C71.6,22,85.3,8,102.3,7.7c17.1-0.4,31.1,13,31.3,29.9
				C133.8,54.4,120.1,68.3,103.1,68.7z"/>
			<path class="st15" d="M103,68.3c-17,0.4-30.9-12.9-31.1-29.6C71.6,22,85.2,8.1,102.2,7.7c17-0.4,30.9,12.9,31.1,29.6
				C133.5,54,119.9,67.9,103,68.3z"/>
			<path class="st16" d="M102.9,67.9C86,68.3,72.2,55.2,71.9,38.6C71.7,22,85.2,8.2,102.1,7.8c16.9-0.4,30.7,12.7,31,29.3
				C133.2,53.7,119.7,67.5,102.9,67.9z"/>
			<path class="st17" d="M102.8,67.5C86,68,72.3,55,72,38.5C71.8,22,85.2,8.3,101.9,7.9c16.8-0.4,30.5,12.5,30.8,29
				C132.9,53.4,119.6,67.1,102.8,67.5z"/>
			<path class="st18" d="M102.7,67.1c-16.6,0.5-30.4-12.4-30.6-28.7c-0.3-16.3,13-30,29.7-30.4c16.6-0.5,30.4,12.4,30.6,28.7
				C132.6,53,119.4,66.7,102.7,67.1z"/>
			<path class="st19" d="M102.6,66.8c-16.5,0.5-30.2-12.2-30.5-28.4C71.9,22.1,85.1,8.5,101.6,8c16.5-0.5,30.2,12.2,30.5,28.4
				C132.4,52.7,119.2,66.2,102.6,66.8z"/>
			<path class="st20" d="M102.6,66.4c-16.4,0.5-30-12.1-30.3-28.2C72,22.1,85,8.6,101.5,8.1c16.4-0.5,30,12.1,30.3,28.2
				C132.1,52.4,119,65.8,102.6,66.4z"/>
			<path class="st21" d="M102.5,66c-16.3,0.6-29.8-11.9-30.1-27.9C72,22.1,85,8.7,101.3,8.2c16.3-0.6,29.8,11.9,30.1,27.9
				C131.8,52,118.8,65.4,102.5,66z"/>
			<path class="st22" d="M102.4,65.6c-16.2,0.6-29.6-11.8-30-27.6C72.1,22.2,85,8.8,101.2,8.2c16.2-0.6,29.6,11.8,30,27.6
				C131.5,51.7,118.6,65,102.4,65.6z"/>
			<path class="st23" d="M102.3,65.2c-16.1,0.6-29.4-11.6-29.8-27.3C72.2,22.2,84.9,8.9,101,8.3c16.1-0.6,29.4,11.6,29.8,27.3
				C131.2,51.3,118.4,64.6,102.3,65.2z"/>
			<path class="st24" d="M102.2,64.8c-16,0.7-29.3-11.4-29.6-27C72.2,22.2,84.9,9,100.9,8.4c16-0.7,29.3,11.4,29.6,27
				C130.9,51,118.2,64.2,102.2,64.8z"/>
			<path class="st25" d="M102.1,64.4C86.2,65.1,73,53.1,72.7,37.7C72.3,22.2,84.9,9.1,100.8,8.5c15.9-0.7,29.1,11.3,29.5,26.7
				C130.6,50.7,118,63.7,102.1,64.4z"/>
			<path class="st26" d="M102,64c-15.8,0.7-28.9-11.1-29.3-26.5c-0.4-15.3,12.1-28.3,27.9-29c15.8-0.7,28.9,11.1,29.3,26.5
				C130.3,50.3,117.8,63.3,102,64z"/>
			<path class="st27" d="M102,63.7c-15.7,0.7-28.7-11-29.1-26.2c-0.4-15.2,12-28.1,27.6-28.9c15.7-0.7,28.7,11,29.1,26.2
				C130,50,117.6,62.9,102,63.7z"/>
			<path class="st28" d="M101.9,63.3c-15.6,0.8-28.5-10.8-29-25.9C72.5,22.3,84.8,9.5,100.3,8.7c15.6-0.8,28.5,10.8,29,25.9
				C129.7,49.6,117.5,62.5,101.9,63.3z"/>
			<path class="st29" d="M101.8,62.9C86.3,63.7,73.4,52.2,73,37.3C72.6,22.3,84.7,9.6,100.2,8.8C115.7,8,128.6,19.4,129,34.4
				C129.4,49.3,117.3,62.1,101.8,62.9z"/>
			<path class="st30" d="M101.7,62.5C86.4,63.3,73.5,52,73.1,37.2C72.6,22.3,84.7,9.7,100,8.8c15.4-0.8,28.2,10.5,28.6,25.3
				C129.1,49,117.1,61.7,101.7,62.5z"/>
			<path class="st31" d="M101.6,62.1c-15.2,0.9-28-10.4-28.5-25C72.7,22.4,84.7,9.8,99.9,8.9c15.2-0.9,28,10.3,28.5,25
				C128.9,48.6,116.9,61.2,101.6,62.1z"/>
			<path class="st32" d="M101.5,61.7C86.4,62.6,73.7,51.5,73.2,37C72.7,22.4,84.6,9.9,99.8,9c15.1-0.9,27.8,10.2,28.3,24.8
				C128.6,48.3,116.7,60.8,101.5,61.7z"/>
			<path class="st33" d="M101.5,61.3c-15,0.9-27.6-10-28.1-24.5C72.8,22.4,84.6,10,99.6,9c15-0.9,27.6,10,28.1,24.5
				C128.3,48,116.5,60.4,101.5,61.3z"/>
			<path class="st34" d="M101.4,60.9c-14.9,1-27.5-9.9-28-24.2C72.9,22.4,84.6,10.1,99.5,9.1c14.9-1,27.5,9.9,28,24.2
				C128,47.6,116.3,60,101.4,60.9z"/>
			<path class="st35" d="M101.3,60.6c-14.8,1-27.3-9.7-27.8-23.9c-0.5-14.2,11-26.5,25.8-27.5c14.8-1,27.3,9.7,27.8,23.9
				C127.7,47.3,116.1,59.6,101.3,60.6z"/>
			<path class="st36" d="M101.2,60.2c-14.7,1-27.1-9.6-27.6-23.6C73,22.5,84.5,10.3,99.2,9.3c14.7-1,27.1,9.6,27.6,23.6
				C127.4,46.9,115.9,59.2,101.2,60.2z"/>
			<path class="st37" d="M101.1,59.8c-14.6,1-26.9-9.4-27.5-23.3C73.1,22.5,84.4,10.4,99,9.3c14.6-1,26.9,9.4,27.5,23.3
				C127.1,46.6,115.7,58.7,101.1,59.8z"/>
			<path class="st38" d="M101,59.4c-14.5,1.1-26.7-9.3-27.3-23.1C73.1,22.5,84.4,10.5,98.9,9.4c14.5-1.1,26.7,9.3,27.3,23.1
				C126.8,46.3,115.5,58.3,101,59.4z"/>
			<path class="st39" d="M101,59c-14.4,1.1-26.5-9.1-27.2-22.8c-0.6-13.7,10.6-25.7,25-26.8c14.4-1.1,26.5,9.1,27.2,22.8
				C126.5,45.9,115.4,57.9,101,59z"/>
			<path class="st40" d="M100.9,58.6c-14.3,1.1-26.4-8.9-27-22.5C73.3,22.6,84.3,10.7,98.6,9.5c14.3-1.1,26.4,8.9,27,22.5
				C126.2,45.6,115.2,57.5,100.9,58.6z"/>
			<path class="st41" d="M100.8,58.2C86.6,59.4,74.6,49.5,74,36C73.3,22.6,84.3,10.8,98.5,9.6c14.2-1.2,26.2,8.8,26.8,22.2
				C125.9,45.3,115,57.1,100.8,58.2z"/>
			<path class="st42" d="M100.7,57.9c-14.1,1.2-26-8.6-26.7-21.9c-0.7-13.3,10.2-25,24.3-26.2c14.1-1.2,26,8.6,26.7,21.9
				C125.6,44.9,114.8,56.7,100.7,57.9z"/>
			<path class="st43" d="M100.6,57.5c-14,1.2-25.8-8.5-26.5-21.6C73.5,22.7,84.2,11,98.2,9.8c14-1.2,25.8,8.5,26.5,21.6
				C125.4,44.6,114.6,56.2,100.6,57.5z"/>
			<path class="st44" d="M100.5,57.1c-13.8,1.3-25.6-8.3-26.3-21.4c-0.7-13,10-24.6,23.8-25.9c13.9-1.2,25.6,8.3,26.3,21.4
				C125.1,44.2,114.4,55.8,100.5,57.1z"/>
			<path class="st45" d="M100.5,56.7C86.7,58,75,48.5,74.3,35.6c-0.7-12.9,9.9-24.4,23.6-25.7c13.7-1.3,25.5,8.2,26.2,21.1
				C124.8,43.9,114.2,55.4,100.5,56.7z"/>
			<path class="st46" d="M100.4,56.3c-13.6,1.3-25.3-8-26-20.8C73.7,22.7,84.1,11.3,97.8,10c13.6-1.3,25.3,8,26,20.8
				C124.5,43.6,114,55,100.4,56.3z"/>
			<path class="st47" d="M100.3,55.9c-13.5,1.3-25.1-7.8-25.8-20.5c-0.7-12.7,9.6-24,23.2-25.4c13.5-1.3,25.1,7.8,25.8,20.5
				C124.2,43.2,113.8,54.6,100.3,55.9z"/>
			<path class="st48" d="M100.2,55.5c-13.4,1.4-24.9-7.7-25.7-20.2c-0.8-12.5,9.5-23.8,22.9-25.2c13.4-1.4,24.9,7.7,25.7,20.2
				C123.9,42.9,113.6,54.2,100.2,55.5z"/>
			<path class="st49" d="M100.1,55.1c-13.3,1.4-24.7-7.5-25.5-19.9c-0.8-12.4,9.4-23.6,22.7-25c13.3-1.4,24.7,7.5,25.5,19.9
				C123.6,42.6,113.4,53.7,100.1,55.1z"/>
			<path class="st50" d="M100,54.8c-13.2,1.4-24.6-7.4-25.3-19.7C73.9,22.8,84,11.7,97.2,10.3c13.2-1.4,24.5,7.4,25.3,19.7
				C123.3,42.2,113.2,53.3,100,54.8z"/>
			<path class="st51" d="M100,54.4C86.9,55.8,75.6,47.2,74.8,35C74,22.8,83.9,11.8,97,10.3c13.1-1.5,24.4,7.2,25.2,19.4
				C123,41.9,113.1,52.9,100,54.4z"/>
			<path class="st52" d="M99.9,54c-13,1.5-24.2-7.1-25-19.1c-0.8-12,9-23,22-24.5c13-1.5,24.2,7.1,25,19.1
				C122.7,41.5,112.9,52.5,99.9,54z"/>
			<path class="st53" d="M99.8,53.6c-12.9,1.5-24-6.9-24.8-18.8C74.1,22.9,83.9,12,96.8,10.5c12.9-1.5,24,6.9,24.8,18.8
				C122.4,41.2,112.7,52.1,99.8,53.6z"/>
			<path class="st54" d="M99.7,53.2C86.9,54.8,75.9,46.5,75,34.7c-0.9-11.8,8.8-22.6,21.6-24.1c12.8-1.5,23.8,6.7,24.7,18.5
				C122.1,40.9,112.5,51.7,99.7,53.2z"/>
			<path class="st55" d="M99.6,52.8C87,54.4,76,46.2,75.1,34.6c-0.9-11.6,8.7-22.4,21.4-23.9c12.7-1.6,23.6,6.6,24.5,18.2
				C121.9,40.5,112.3,51.2,99.6,52.8z"/>
			<path class="st56" d="M99.5,52.4C87,54,76.1,46,75.2,34.5C74.3,23,83.8,12.3,96.3,10.7c12.6-1.6,23.5,6.4,24.3,18
				C121.6,40.2,112.1,50.8,99.5,52.4z"/>
			<path class="st57" d="M99.5,52C87,53.7,76.2,45.8,75.3,34.4c-0.9-11.4,8.5-22,20.9-23.6c12.5-1.6,23.3,6.3,24.2,17.7
				C121.3,39.8,111.9,50.4,99.5,52z"/>
			<path class="st58" d="M99.4,51.7c-12.3,1.7-23.1-6.1-24-17.4C74.4,23,83.7,12.5,96,10.9c12.3-1.7,23.1,6.1,24,17.4
				C121,39.5,111.7,50,99.4,51.7z"/>
			<path class="st59" d="M99.3,51.3c-12.2,1.7-22.9-6-23.9-17.1C74.5,23,83.7,12.6,95.9,10.9c12.2-1.7,22.9,6,23.9,17.1
				C120.7,39.2,111.5,49.6,99.3,51.3z"/>
			<path class="st60" d="M99.2,50.9c-12.1,1.7-22.7-5.8-23.7-16.8c-1-11,8.1-21.3,20.2-23.1c12.1-1.7,22.7,5.8,23.7,16.8
				C120.4,38.8,111.3,49.2,99.2,50.9z"/>
			<path class="st61" d="M99.1,50.5c-12,1.8-22.6-5.7-23.5-16.5c-1-10.9,8-21.1,20-22.9c12-1.8,22.6,5.6,23.5,16.5
				C120.1,38.5,111.1,48.7,99.1,50.5z"/>
			<path class="st62" d="M99,50.1c-11.9,1.8-22.4-5.5-23.4-16.3c-1-10.8,7.9-20.9,19.8-22.7c11.9-1.8,22.4,5.5,23.4,16.3
				C119.8,38.2,111,48.3,99,50.1z"/>
			<path class="st63" d="M99,49.7c-11.8,1.8-22.2-5.3-23.2-16c-1-10.6,7.8-20.7,19.6-22.5c11.8-1.8,22.2,5.3,23.2,16
				C119.5,37.8,110.8,47.9,99,49.7z"/>
			<path class="st64" d="M98.9,49.3c-11.7,1.8-22-5.2-23-15.7c-1-10.5,7.6-20.5,19.3-22.4c11.7-1.8,22,5.2,23,15.7
				C119.2,37.5,110.6,47.5,98.9,49.3z"/>
			<path class="st65" d="M98.8,49c-11.6,1.9-21.8-5-22.9-15.4c-1-10.4,7.5-20.3,19.1-22.2c11.6-1.9,21.8,5,22.9,15.4
				C118.9,37.1,110.4,47.1,98.8,49z"/>
			<path class="st66" d="M98.7,48.6C87.2,50.5,77.1,43.7,76,33.4c-1.1-10.3,7.4-20.1,18.9-22c11.5-1.9,21.6,4.9,22.7,15.1
				C118.6,36.8,110.2,46.7,98.7,48.6z"/>
			<path class="st67" d="M98.6,48.2c-11.4,1.9-21.5-4.7-22.5-14.8C75,23.2,83.4,13.4,94.8,11.5c11.4-1.9,21.5,4.7,22.5,14.8
				C118.4,36.5,110,46.2,98.6,48.2z"/>
			<path class="st68" d="M98.5,47.8c-11.3,2-21.3-4.6-22.4-14.6c-1.1-10,7.2-19.7,18.4-21.7c11.3-2,21.3,4.6,22.4,14.6
				C118.1,36.1,109.8,45.8,98.5,47.8z"/>
			<path class="st69" d="M98.5,47.4c-11.2,2-21.1-4.4-22.2-14.3c-1.1-9.9,7.1-19.5,18.2-21.5c11.2-2,21.1,4.4,22.2,14.3
				C117.8,35.8,109.6,45.4,98.5,47.4z"/>
			<path class="st70" d="M98.4,47c-11.1,2-20.9-4.2-22-14c-1.1-9.7,6.9-19.3,18-21.3c11.1-2,20.9,4.2,22,14
				C117.5,35.5,109.4,45,98.4,47z"/>
			<path class="st71" d="M98.3,46.6c-10.9,2.1-20.7-4.1-21.9-13.7c-1.1-9.6,6.8-19.1,17.8-21.1c10.9-2.1,20.7,4.1,21.9,13.7
				C117.2,35.1,109.2,44.6,98.3,46.6z"/>
			<path class="st72" d="M98.2,46.2c-10.8,2.1-20.6-3.9-21.7-13.4c-1.2-9.5,6.7-18.9,17.5-21c10.8-2.1,20.6,3.9,21.7,13.4
				C116.9,34.8,109,44.2,98.2,46.2z"/>
			<path class="st73" d="M98.1,45.9C87.4,48,77.7,42.1,76.6,32.7c-1.2-9.4,6.6-18.7,17.3-20.8c10.7-2.1,20.4,3.8,21.5,13.1
				C116.6,34.4,108.8,43.7,98.1,45.9z"/>
			<path class="st74" d="M98,45.5c-10.6,2.1-20.2-3.6-21.4-12.9c-1.2-9.2,6.5-18.5,17.1-20.6c10.6-2.1,20.2,3.6,21.4,12.9
				C116.3,34.1,108.7,43.3,98,45.5z"/>
			<path class="st75" d="M98,45.1c-10.5,2.2-20-3.5-21.2-12.6c-1.2-9.1,6.3-18.3,16.9-20.4c10.5-2.2,20,3.5,21.2,12.6
				C116,33.8,108.5,42.9,98,45.1z"/>
			<path class="st76" d="M97.9,44.7c-10.4,2.2-19.8-3.3-21-12.3c-1.2-9,6.2-18.1,16.6-20.3c10.4-2.2,19.8,3.3,21,12.3
				C115.7,33.4,108.3,42.5,97.9,44.7z"/>
			<path class="st77" d="M97.8,44.3c-10.3,2.2-19.7-3.1-20.9-12c-1.2-8.9,6.1-17.8,16.4-20.1c10.3-2.2,19.6,3.1,20.9,12
				C115.4,33.1,108.1,42.1,97.8,44.3z"/>
			<path class="st78" d="M97.7,43.9c-10.2,2.3-19.5-3-20.7-11.7c-1.3-8.7,6-17.6,16.2-19.9c10.2-2.3,19.5,3,20.7,11.7
				C115.1,32.8,107.9,41.7,97.7,43.9z"/>
			<path class="st79" d="M97.6,43.5c-10.1,2.3-19.3-2.8-20.6-11.4c-1.3-8.6,5.9-17.4,16-19.7c10.1-2.3,19.3,2.8,20.6,11.4
				C114.9,32.4,107.7,41.2,97.6,43.5z"/>
			<path class="st80" d="M97.5,43.1c-10,2.3-19.1-2.7-20.4-11.2c-1.3-8.5,5.8-17.2,15.7-19.6c10-2.3,19.1,2.7,20.4,11.2
				C114.6,32.1,107.5,40.8,97.5,43.1z"/>
			<path class="st81" d="M97.5,42.8c-9.9,2.4-18.9-2.5-20.2-10.9c-1.3-8.4,5.6-17,15.5-19.4c9.9-2.3,18.9,2.5,20.2,10.9
				C114.3,31.7,107.3,40.4,97.5,42.8z"/>
			<path class="st82" d="M97.4,42.4c-9.8,2.4-18.7-2.4-20.1-10.6C76,23.6,82.8,15,92.6,12.6c9.8-2.4,18.7,2.4,20.1,10.6
				C114,31.4,107.1,40,97.4,42.4z"/>
			<path class="st83" d="M97.3,42c-9.7,2.4-18.6-2.2-19.9-10.3c-1.3-8.1,5.4-16.6,15.1-19c9.7-2.4,18.6,2.2,19.9,10.3
				C113.7,31.1,106.9,39.6,97.3,42z"/>
			<path class="st84" d="M97.2,41.6c-9.5,2.4-18.4-2-19.7-10c-1.3-8,5.3-16.4,14.8-18.8c9.5-2.4,18.4,2,19.7,10
				C113.4,30.7,106.7,39.2,97.2,41.6z"/>
			<path class="st85" d="M97.1,41.2c-9.4,2.5-18.2-1.9-19.6-9.7c-1.4-7.8,5.2-16.2,14.6-18.7c9.4-2.5,18.2,1.9,19.6,9.7
				C113.1,30.4,106.6,38.7,97.1,41.2z"/>
			<path class="st86" d="M97,40.8c-9.3,2.5-18-1.7-19.4-9.5c-1.4-7.7,5.1-16,14.4-18.5c9.3-2.5,18,1.7,19.4,9.5
				C112.8,30,106.4,38.3,97,40.8z"/>
			<path class="st87" d="M97,40.4c-9.2,2.5-17.8-1.6-19.2-9.2c-1.4-7.6,4.9-15.8,14.2-18.3c9.2-2.5,17.8,1.6,19.2,9.2
				C112.5,29.7,106.2,37.9,97,40.4z"/>
			<path class="st88" d="M96.9,40.1c-9.1,2.6-17.7-1.4-19.1-8.9c-1.4-7.5,4.8-15.6,13.9-18.1c9.1-2.6,17.6,1.4,19.1,8.9
				C112.2,29.4,106,37.5,96.9,40.1z"/>
			<path class="st89" d="M96.8,39.7c-9,2.6-17.5-1.3-18.9-8.6c-1.4-7.3,4.7-15.4,13.7-18c9-2.6,17.5,1.3,18.9,8.6
				C111.9,29,105.8,37.1,96.8,39.7z"/>
			<path class="st90" d="M96.7,39.3C87.8,41.9,79.4,38.2,78,31c-1.4-7.2,4.6-15.2,13.5-17.8c8.9-2.6,17.3,1.1,18.7,8.3
				C111.6,28.7,105.6,36.7,96.7,39.3z"/>
			<path class="st91" d="M96.6,38.9c-8.8,2.7-17.1-0.9-18.6-8c-1.5-7.1,4.5-15,13.3-17.6c8.8-2.6,17.1,0.9,18.6,8
				C111.4,28.4,105.4,36.2,96.6,38.9z"/>
			<path class="st92" d="M96.5,38.5c-8.7,2.7-16.9-0.8-18.4-7.7c-1.5-7,4.4-14.8,13-17.4c8.7-2.7,16.9,0.8,18.4,7.8
				C111.1,28,105.2,35.8,96.5,38.5z"/>
			<path class="st93" d="M96.5,38.1c-8.6,2.7-16.7-0.6-18.2-7.5c-1.5-6.8,4.2-14.6,12.8-17.3c8.6-2.7,16.7,0.6,18.2,7.5
				C110.8,27.7,105,35.4,96.5,38.1z"/>
			<path class="st94" d="M96.4,37.7c-8.5,2.7-16.6-0.5-18.1-7.2c-1.5-6.7,4.1-14.4,12.6-17.1c8.5-2.7,16.6,0.5,18.1,7.2
				C110.5,27.3,104.8,35,96.4,37.7z"/>
			<path class="st95" d="M96.3,37.3c-8.4,2.8-16.4-0.3-17.9-6.9c-1.5-6.6,4-14.1,12.4-16.9c8.4-2.8,16.4,0.3,17.9,6.9
				C110.2,27,104.6,34.6,96.3,37.3z"/>
			<path class="st96" d="M96.2,37c-8.3,2.8-16.2-0.2-17.7-6.6c-1.5-6.4,3.9-13.9,12.2-16.7c8.3-2.8,16.2,0.2,17.7,6.6
				C109.9,26.7,104.4,34.2,96.2,37z"/>
			<path class="st97" d="M96.1,36.6c-8.1,2.8-16,0-17.6-6.3c-1.6-6.3,3.8-13.7,11.9-16.6c8.1-2.8,16,0,17.6,6.3
				C109.6,26.3,104.3,33.7,96.1,36.6z"/>
			<path class="st98" d="M96,36.2c-8,2.9-15.8,0.1-17.4-6c-1.6-6.2,3.7-13.5,11.7-16.4c8-2.9,15.8-0.1,17.4,6
				C109.3,26,104.1,33.3,96,36.2z"/>
			<path class="st99" d="M95.9,35.8C88,38.7,80.3,36.1,78.7,30c-1.6-6.1,3.5-13.3,11.5-16.2c7.9-2.9,15.7-0.3,17.2,5.8
				C109,25.7,103.9,32.9,95.9,35.8z"/>
			<path class="st100" d="M95.9,35.4c-7.8,2.9-15.5,0.5-17.1-5.5c-1.6-5.9,3.4-13.1,11.3-16c7.8-2.9,15.5-0.5,17.1,5.5
				C108.7,25.3,103.7,32.5,95.9,35.4z"/>
			<path class="st101" d="M95.8,35c-7.7,2.9-15.3,0.6-16.9-5.2c-1.6-5.8,3.3-12.9,11-15.9c7.7-2.9,15.3-0.6,16.9,5.2
				C108.4,25,103.5,32.1,95.8,35z"/>
			<path class="st102" d="M95.7,34.6c-7.6,3-15.1,0.8-16.8-4.9C77.3,24,82.1,17,89.7,14c7.6-3,15.1-0.8,16.8,4.9
				C108.1,24.6,103.3,31.7,95.7,34.6z"/>
			<path class="st103" d="M95.6,34.2c-7.5,3-14.9,0.9-16.6-4.6c-1.7-5.6,3.1-12.5,10.6-15.5c7.5-3,14.9-0.9,16.6,4.6
				C107.9,24.3,103.1,31.2,95.6,34.2z"/>
			<path class="st104" d="M95.5,33.9c-7.4,3-14.8,1.1-16.4-4.3c-1.7-5.4,3-12.3,10.4-15.3c7.4-3,14.7-1.1,16.4,4.3
				C107.6,24,102.9,30.8,95.5,33.9z"/>
			<path class="st105" d="M95.4,33.5c-7.3,3.1-14.6,1.2-16.3-4.1c-1.7-5.3,2.8-12.1,10.1-15.2c7.3-3.1,14.6-1.2,16.3,4.1
				C107.3,23.6,102.7,30.4,95.4,33.5z"/>
			<path class="st106" d="M95.4,33.1c-7.2,3.1-14.4,1.4-16.1-3.8c-1.7-5.2,2.7-11.9,9.9-15c7.2-3.1,14.4-1.4,16.1,3.8
				C107,23.3,102.5,30,95.4,33.1z"/>
			<path class="st107" d="M95.3,32.7c-7.1,3.1-14.2,1.6-15.9-3.5C77.6,24.2,82,17.5,89,14.4c7.1-3.1,14.2-1.6,15.9,3.5
				C106.7,23,102.3,29.6,95.3,32.7z"/>
			<path class="st108" d="M95.2,32.3c-7,3.2-14,1.7-15.8-3.2c-1.7-4.9,2.5-11.5,9.5-14.6c7-3.2,14-1.7,15.8,3.2
				C106.4,22.6,102.2,29.2,95.2,32.3z"/>
			<path class="st109" d="M95.1,31.9c-6.9,3.2-13.8,1.9-15.6-2.9c-1.8-4.8,2.4-11.3,9.2-14.5c6.9-3.2,13.8-1.9,15.6,2.9
				C106.1,22.3,102,28.7,95.1,31.9z"/>
			<path class="st110" d="M95,31.5c-6.8,3.2-13.7,2-15.4-2.6c-1.8-4.7,2.3-11.1,9-14.3c6.7-3.2,13.7-2,15.4,2.6
				C105.8,21.9,101.8,28.3,95,31.5z"/>
			<path class="st111" d="M94.9,31.2c-6.6,3.2-13.5,2.2-15.3-2.4c-1.8-4.5,2.1-10.9,8.8-14.1c6.6-3.2,13.5-2.2,15.3,2.4
				C105.5,21.6,101.6,27.9,94.9,31.2z"/>
			<path class="st112" d="M94.9,30.8c-6.5,3.3-13.3,2.3-15.1-2.1c-1.8-4.4,2-10.7,8.6-13.9c6.5-3.3,13.3-2.3,15.1,2.1
				C105.2,21.3,101.4,27.5,94.9,30.8z"/>
			<path class="st113" d="M94.8,30.4c-6.4,3.3-13.1,2.5-14.9-1.8c-1.8-4.3,1.9-10.4,8.3-13.8c6.4-3.3,13.1-2.5,14.9,1.8
				C104.9,20.9,101.2,27.1,94.8,30.4z"/>
			<path class="st114" d="M94.7,30c-6.3,3.3-12.9,2.7-14.8-1.5c-1.8-4.2,1.8-10.2,8.1-13.6c6.3-3.3,12.9-2.7,14.8,1.5
				C104.6,20.6,101,26.7,94.7,30z"/>
			<path class="st115" d="M94.6,29.6C88.4,33,81.9,32.4,80,28.4c-1.9-4,1.7-10,7.9-13.4c6.2-3.4,12.7-2.8,14.6,1.2
				C104.4,20.2,100.8,26.2,94.6,29.6z"/>
			<path class="st116" d="M94.5,29.2c-6.1,3.4-12.6,3-14.4-0.9c-1.9-3.9,1.5-9.8,7.7-13.2c6.1-3.4,12.6-3,14.4,0.9
				C104.1,19.9,100.6,25.8,94.5,29.2z"/>
			<path class="st117" d="M94.4,28.8c-6,3.4-12.4,3.1-14.3-0.7c-1.9-3.8,1.4-9.6,7.4-13c6-3.4,12.4-3.1,14.3,0.7
				C103.8,19.6,100.4,25.4,94.4,28.8z"/>
			<path class="st118" d="M94.4,28.4c-5.9,3.5-12.2,3.3-14.1-0.4c-1.9-3.7,1.3-9.4,7.2-12.9c5.9-3.4,12.2-3.3,14.1,0.4
				C103.5,19.2,100.2,25,94.4,28.4z"/>
			<path class="st119" d="M94.3,28.1c-5.8,3.5-12,3.4-14-0.1c-1.9-3.5,1.2-9.2,7-12.7c5.8-3.5,12-3.4,13.9,0.1
				C103.2,18.9,100.1,24.6,94.3,28.1z"/>
			<path class="st120" d="M94.2,27.7c-5.7,3.5-11.8,3.6-13.8,0.2c-1.9-3.4,1.1-9,6.8-12.5c5.7-3.5,11.8-3.6,13.8-0.2
				C102.9,18.6,99.9,24.2,94.2,27.7z"/>
			<path class="st121" d="M94.1,27.3c-5.6,3.5-11.7,3.8-13.6,0.5c-2-3.3,1-8.8,6.5-12.3c5.6-3.5,11.7-3.7,13.6-0.5
				C102.6,18.2,99.7,23.7,94.1,27.3z"/>
			<path class="st122" d="M94,26.9c-5.5,3.6-11.5,3.9-13.5,0.8c-2-3.2,0.8-8.6,6.3-12.2c5.5-3.6,11.5-3.9,13.5-0.8
				C102.3,17.9,99.5,23.3,94,26.9z"/>
			<path class="st123" d="M93.9,26.5c-5.4,3.6-11.3,4.1-13.3,1c-2-3,0.7-8.4,6.1-12c5.3-3.6,11.3-4.1,13.3-1
				C102,17.5,99.3,22.9,93.9,26.5z"/>
			<path class="st124" d="M93.9,26.1c-5.2,3.6-11.1,4.2-13.1,1.3c-2-2.9,0.6-8.2,5.9-11.8c5.2-3.6,11.1-4.2,13.1-1.3
				C101.7,17.2,99.1,22.5,93.9,26.1z"/>
		</g>
		<g class="st125">
			
				<radialGradient id="SVGID_1_" cx="87.3188" cy="41.2101" r="52.9714" gradientTransform="matrix(0.879 0 0 0.879 12.9043 -11.7849)" gradientUnits="userSpaceOnUse">
				<stop  offset="0.6647" style="stop-color:#FFFFFF"/>
				<stop  offset="0.6949" style="stop-color:#F7F8F6"/>
				<stop  offset="0.7451" style="stop-color:#E1E5DC"/>
				<stop  offset="0.8088" style="stop-color:#BDC7B3"/>
				<stop  offset="0.8838" style="stop-color:#8B9D7A"/>
				<stop  offset="0.9672" style="stop-color:#4C6732"/>
				<stop  offset="1" style="stop-color:#315114"/>
			</radialGradient>
			<path class="st126" d="M137.3,40.1c0,18.4-14.9,33.3-33.3,33.3c-18.4,0-33.3-14.9-33.3-33.3c0-18.4,14.9-33.3,33.3-33.3
				C122.4,6.8,137.3,21.7,137.3,40.1z"/>
		</g>
		<path class="st127" d="M97.9,24.9c8.9-2.6,17.6-3.4,25-2.5c-8.6-2.5-20-2.3-31.9,1.2c-7.5,2.2-14.2,5.5-19.6,9.3
			c-0.5,2.3-0.8,4.7-0.8,7.1c0,0.3,0,0.6,0,0.9C76.6,34.3,86.3,28.4,97.9,24.9z"/>
		<path class="st128" d="M114.3,54.7c-8.9,2.6-17.6,3.4-25,2.5c8.6,2.5,20,2.3,31.9-1.2c5.4-1.6,10.4-3.7,14.8-6.2
			c0.7-2.2,1.1-4.6,1.3-7C131.4,47.7,123.5,52,114.3,54.7z"/>
		<path class="st127" d="M113.1,25.9c-12.1,2.5-22.3,7.7-28.6,14c6.1-4.2,14.2-7.7,23.2-9.6c10.5-2.2,20.4-1.9,28.3,0.3
			c-0.6-2-1.4-4-2.4-5.9C127.4,24,120.3,24.4,113.1,25.9z"/>
		<path class="st128" d="M130.5,54.7c-6.1,4.2-14.2,7.7-23.3,9.6c-9.4,1.9-18.3,1.9-25.8,0.3c2.4,2.2,5.2,4.1,8.2,5.5
			c3.9-0.1,8-0.6,12.2-1.5C114,66.2,124.2,60.9,130.5,54.7z"/>
	</g>
	<g>
		<path class="st129" d="M23.2,112.6H12.6c-1.8,0-2.8,1-2.8,2.8v1.3c0,3.7,2.4,7.2,6.6,7.2c3.2,0,4.8-2,5.8-3.5
			c0.4-0.7,1.3-0.9,2-0.4c0.6,0.4,0.8,1.3,0.4,2c-1.2,2.2-3.9,4.7-8.3,4.7c-5.8,0-9.6-4.7-9.6-10V106c0-5.3,3.8-10,9.6-10
			c5.8,0,9.6,4.7,9.6,10v3.8C26,111.6,25,112.6,23.2,112.6z M23,106c0-3.6-2.4-7.2-6.6-7.2c-4.2,0-6.6,3.6-6.6,7.2v1.3
			c0,1.8,1,2.8,2.8,2.8h7.6c1.8,0,2.8-1,2.8-2.8V106z"/>
		<path class="st129" d="M46.2,124.9c-0.3,0.8-0.7,1.9-1.5,1.9c-0.8,0-1.3-1-1.5-1.9l-7.8-26.6c-0.3-1,0.3-1.7,1.3-1.7
			c1,0,1.6,0.6,1.9,1.7l5.1,17.7c0.3,0.8,0.6,1.3,1.1,1.3c0.5,0,0.8-0.5,1.1-1.3l5.1-17.7c0.3-1.1,0.9-1.7,1.9-1.7
			c1,0,1.5,0.8,1.3,1.7L46.2,124.9z"/>
		<path class="st129" d="M74.2,126.8c-5.8,0-9.6-4.7-9.6-10V106c0-5.3,3.8-10,9.6-10c5.8,0,9.6,4.7,9.6,10v10.7
			C83.8,122.1,80,126.8,74.2,126.8z M80.8,106c0-3.6-2.4-7.2-6.6-7.2c-4.2,0-6.6,3.6-6.6,7.2v10.7c0,3.7,2.4,7.2,6.6,7.2
			c4.2,0,6.6-3.6,6.6-7.2V106z"/>
		<path class="st129" d="M103.8,126.8c-4.2,0-7.4-2.5-8.9-5c-0.4-0.6-0.4-1.5,0.3-2c0.6-0.5,1.4-0.4,1.9,0.3
			c1.4,1.9,3.8,3.8,6.7,3.8c4.7,0,6.6-3.3,6.6-6.4c0-5.5-6.6-5.6-6.6-5.6c-5.6-0.3-8.9-3.4-8.9-8c0-3.9,3-8,8.9-8
			c2.6,0,5.1,1.1,6.5,2.5c0.6,0.6,0.6,1.5,0,2c-0.6,0.5-1.3,0.5-2.2-0.1c-1.2-1-2.5-1.6-4.3-1.6c-4.8,0-6,3.5-6,5.3
			c0,4.8,5.9,5.2,5.9,5.2c5.1,0.3,9.7,2.6,9.7,8.4C113.4,122.8,109.8,126.8,103.8,126.8z"/>
		<path class="st129" d="M133.4,126.8c-5.8,0-9.6-4.7-9.6-10V106c0-5.3,3.8-10,9.6-10c5.8,0,9.6,4.7,9.6,10v10.7
			C143,122.1,139.1,126.8,133.4,126.8z M140,106c0-3.6-2.4-7.2-6.6-7.2c-4.2,0-6.6,3.6-6.6,7.2v10.7c0,3.7,2.4,7.2,6.6,7.2
			c4.2,0,6.6-3.6,6.6-7.2V106z"/>
		<path class="st129" d="M173.1,88.1c-1.7-1-3.9-2-6.2-2c-4.2,0-6.6,3.6-6.6,7.2v0.4c0,1.8,1,2.8,2.8,2.8h8.7c0.9,0,1.4,0.5,1.4,1.2
			c0,0.7-0.5,1.2-1.4,1.2h-8.7c-1.8,0-2.8,1-2.8,2.8v22.9c0,0.9-0.5,1.4-1.4,1.4h-0.2c-0.9,0-1.4-0.5-1.4-1.4v-22.9
			c0-1.8-1-2.8-2.8-2.8h-1c-0.9,0-1.4-0.5-1.4-1.2c0-0.7,0.5-1.2,1.4-1.2h1c1.8,0,2.8-1,2.8-2.8v-0.4c0-5.3,3.8-10,9.6-10
			c3.2,0,6.1,1.3,7.7,2.4c0.6,0.4,0.9,1.3,0.4,1.9C174.6,88.3,173.8,88.5,173.1,88.1z"/>
		<path class="st129" d="M201.9,124.6c-1,1-3.1,2.2-6.1,2.2c-5.8,0-9.6-4.7-9.6-10v-14.9c0-1.8-1-2.8-2.8-2.8h-1
			c-0.9,0-1.4-0.5-1.4-1.2c0-0.7,0.5-1.2,1.4-1.2h1c1.8,0,2.8-1,2.8-2.8v-4.2c0-0.9,0.5-1.4,1.4-1.4h0.2c0.9,0,1.4,0.5,1.4,1.4v4.2
			c0,1.8,1,2.8,2.8,2.8h6.6c0.9,0,1.4,0.5,1.4,1.2c0,0.7-0.5,1.2-1.4,1.2h-6.6c-1.8,0-2.8,1-2.8,2.8v14.9c0,3.7,2.4,7.2,6.6,7.2
			c1.9,0,3.1-0.7,4-1.4c0.8-0.6,1.6-0.8,2.2-0.3C202.8,122.9,202.6,123.9,201.9,124.6z"/>
	</g>
	<g>
		<path class="st130" d="M89.3,57.2c7.4,0.9,16.1,0.1,25-2.5c9.2-2.7,17.1-7,22.9-11.9c0.1-0.9,0.1-1.8,0.1-2.7
			c0-3.3-0.5-6.5-1.4-9.5c-7.9-2.2-17.8-2.4-28.3-0.3c-9.1,1.9-17.1,5.3-23.3,9.6c6.4-6.3,16.6-11.5,28.7-14
			c7.2-1.5,14.2-1.8,20.5-1.2C128,14,116.9,6.7,104,6.7c-15.9,0-29.2,11.2-32.5,26.1c5.4-3.8,12-7.1,19.5-9.3
			c11.8-3.5,23.3-3.7,31.9-1.2c-7.4-0.9-16.1-0.1-25.1,2.5c-11.7,3.4-21.3,9.4-27.1,16c0.2,9.4,4.4,17.8,10.8,23.7
			c7.4,1.6,16.4,1.6,25.7-0.4c9.1-1.9,17.1-5.3,23.3-9.6c-6.4,6.3-16.6,11.5-28.7,14c-4.1,0.9-8.2,1.3-12.1,1.5
			c4.3,2.1,9.2,3.2,14.3,3.2c15,0,27.7-9.9,31.8-23.5c-4.4,2.5-9.3,4.6-14.7,6.2C109.3,59.5,97.8,59.7,89.3,57.2z"/>
	</g>
</g>
<g id="Ebene_2" class="st0">
	<rect y="127" class="st1" width="209.3" height="6.5"/>
	<rect class="st1" width="6.5" height="133.5"/>
	<rect x="202.8" class="st1" width="6.5" height="133.5"/>
	<rect class="st1" width="209.3" height="6.5"/>
</g>
</svg>
