<?xml version="1.0" encoding="UTF-8" standalone="no"?>
<!-- Created with Inkscape (http://www.inkscape.org/) -->

<svg
   version="1.1"
   id="svg1"
   width="672"
   height="124.31867"
   viewBox="0 0 672 124.31867"
   sodipodi:docname="opcua.svg"
   inkscape:version="1.3.2 (091e20e, 2023-11-25)"
   xmlns:inkscape="http://www.inkscape.org/namespaces/inkscape"
   xmlns:sodipodi="http://sodipodi.sourceforge.net/DTD/sodipodi-0.dtd"
   xmlns="http://www.w3.org/2000/svg"
   xmlns:svg="http://www.w3.org/2000/svg">
  <defs
     id="defs1">
    <linearGradient
       x1="0"
       y1="0"
       x2="1"
       y2="0"
       gradientUnits="userSpaceOnUse"
       gradientTransform="matrix(6.3734,-6.3734,-6.3734,-6.3734,12.003,83.638)"
       spreadMethod="pad"
       id="linearGradient3">
      <stop
         style="stop-opacity:1;stop-color:#000610"
         offset="0"
         id="stop2" />
      <stop
         style="stop-opacity:1;stop-color:#1b63b8"
         offset="1"
         id="stop3" />
    </linearGradient>
    <linearGradient
       x1="0"
       y1="0"
       x2="1"
       y2="0"
       gradientUnits="userSpaceOnUse"
       gradientTransform="matrix(6.3726,-6.3726,-6.3726,-6.3726,32.49,81.229)"
       spreadMethod="pad"
       id="linearGradient5">
      <stop
         style="stop-opacity:1;stop-color:#000610"
         offset="0"
         id="stop4" />
      <stop
         style="stop-opacity:1;stop-color:#1b63b8"
         offset="1"
         id="stop5" />
    </linearGradient>
    <linearGradient
       x1="0"
       y1="0"
       x2="1"
       y2="0"
       gradientUnits="userSpaceOnUse"
       gradientTransform="matrix(6.3726,-6.3726,-6.3726,-6.3726,25.26,67.009)"
       spreadMethod="pad"
       id="linearGradient7">
      <stop
         style="stop-opacity:1;stop-color:#000610"
         offset="0"
         id="stop6" />
      <stop
         style="stop-opacity:1;stop-color:#1b63b8"
         offset="1"
         id="stop7" />
    </linearGradient>
    <linearGradient
       x1="0"
       y1="0"
       x2="1"
       y2="0"
       gradientUnits="userSpaceOnUse"
       gradientTransform="matrix(6.3738,-6.3738,-6.3738,-6.3738,53.701,36.005)"
       spreadMethod="pad"
       id="linearGradient9">
      <stop
         style="stop-opacity:1;stop-color:#000610"
         offset="0"
         id="stop8" />
      <stop
         style="stop-opacity:1;stop-color:#1b63b8"
         offset="1"
         id="stop9" />
    </linearGradient>
    <linearGradient
       x1="0"
       y1="0"
       x2="1"
       y2="0"
       gradientUnits="userSpaceOnUse"
       gradientTransform="matrix(6.3746,-6.3746,-6.3746,-6.3746,24.295,53.031)"
       spreadMethod="pad"
       id="linearGradient11">
      <stop
         style="stop-opacity:1;stop-color:#000610"
         offset="0"
         id="stop10" />
      <stop
         style="stop-opacity:1;stop-color:#1b63b8"
         offset="1"
         id="stop11" />
    </linearGradient>
    <linearGradient
       x1="0"
       y1="0"
       x2="1"
       y2="0"
       gradientUnits="userSpaceOnUse"
       gradientTransform="matrix(6.3732,-6.3732,-6.3732,-6.3732,37.069,61.464)"
       spreadMethod="pad"
       id="linearGradient13">
      <stop
         style="stop-opacity:1;stop-color:#000610"
         offset="0"
         id="stop12" />
      <stop
         style="stop-opacity:1;stop-color:#1b63b8"
         offset="1"
         id="stop13" />
    </linearGradient>
    <linearGradient
       x1="0"
       y1="0"
       x2="1"
       y2="0"
       gradientUnits="userSpaceOnUse"
       gradientTransform="matrix(6.3744,-6.3744,-6.3744,-6.3744,51.531,75.203)"
       spreadMethod="pad"
       id="linearGradient15">
      <stop
         style="stop-opacity:1;stop-color:#000610"
         offset="0"
         id="stop14" />
      <stop
         style="stop-opacity:1;stop-color:#1b63b8"
         offset="1"
         id="stop15" />
    </linearGradient>
    <linearGradient
       x1="0"
       y1="0"
       x2="1"
       y2="0"
       gradientUnits="userSpaceOnUse"
       gradientTransform="matrix(11.813,-11.813,-11.813,-11.813,64.833,28.694)"
       spreadMethod="pad"
       id="linearGradient17">
      <stop
         style="stop-opacity:1;stop-color:#000610"
         offset="0"
         id="stop16" />
      <stop
         style="stop-opacity:1;stop-color:#1b63b8"
         offset="1"
         id="stop17" />
    </linearGradient>
    <linearGradient
       x1="0"
       y1="0"
       x2="1"
       y2="0"
       gradientUnits="userSpaceOnUse"
       gradientTransform="matrix(8.6221,-8.6221,-8.6221,-8.6221,39.939,46.87)"
       spreadMethod="pad"
       id="linearGradient19">
      <stop
         style="stop-opacity:1;stop-color:#000610"
         offset="0"
         id="stop18" />
      <stop
         style="stop-opacity:1;stop-color:#1b63b8"
         offset="1"
         id="stop19" />
    </linearGradient>
    <linearGradient
       x1="0"
       y1="0"
       x2="1"
       y2="0"
       gradientUnits="userSpaceOnUse"
       gradientTransform="matrix(9.0955,-9.0955,-9.0955,-9.0955,77.888,78.515)"
       spreadMethod="pad"
       id="linearGradient21">
      <stop
         style="stop-opacity:1;stop-color:#000610"
         offset="0"
         id="stop20" />
      <stop
         style="stop-opacity:1;stop-color:#1b63b8"
         offset="1"
         id="stop21" />
    </linearGradient>
    <linearGradient
       x1="0"
       y1="0"
       x2="1"
       y2="0"
       gradientUnits="userSpaceOnUse"
       gradientTransform="matrix(9.0964,-9.0964,-9.0964,-9.0964,67.526,66.463)"
       spreadMethod="pad"
       id="linearGradient23">
      <stop
         style="stop-opacity:1;stop-color:#000610"
         offset="0"
         id="stop22" />
      <stop
         style="stop-opacity:1;stop-color:#1b63b8"
         offset="1"
         id="stop23" />
    </linearGradient>
    <linearGradient
       x1="0"
       y1="0"
       x2="1"
       y2="0"
       gradientUnits="userSpaceOnUse"
       gradientTransform="matrix(9.4898,-9.4898,-9.4898,-9.4898,97.104,74.002)"
       spreadMethod="pad"
       id="linearGradient25">
      <stop
         style="stop-opacity:1;stop-color:#000610"
         offset="0"
         id="stop24" />
      <stop
         style="stop-opacity:1;stop-color:#1b63b8"
         offset="1"
         id="stop25" />
    </linearGradient>
    <linearGradient
       x1="0"
       y1="0"
       x2="1"
       y2="0"
       gradientUnits="userSpaceOnUse"
       gradientTransform="matrix(5.3438,-5.3438,-5.3438,-5.3438,19.55,91.274)"
       spreadMethod="pad"
       id="linearGradient27">
      <stop
         style="stop-opacity:1;stop-color:#000610"
         offset="0"
         id="stop26" />
      <stop
         style="stop-opacity:1;stop-color:#1b63b8"
         offset="1"
         id="stop27" />
    </linearGradient>
    <linearGradient
       x1="0"
       y1="0"
       x2="1"
       y2="0"
       gradientUnits="userSpaceOnUse"
       gradientTransform="matrix(13.758,-13.758,-13.758,-13.758,52.084,54.701)"
       spreadMethod="pad"
       id="linearGradient34">
      <stop
         style="stop-opacity:1;stop-color:#000610"
         offset="0"
         id="stop33" />
      <stop
         style="stop-opacity:1;stop-color:#1b63b8"
         offset="1"
         id="stop34" />
    </linearGradient>
    <linearGradient
       x1="0"
       y1="0"
       x2="1"
       y2="0"
       gradientUnits="userSpaceOnUse"
       gradientTransform="matrix(13.759,-13.759,-13.759,-13.759,69.437,49.006)"
       spreadMethod="pad"
       id="linearGradient36">
      <stop
         style="stop-opacity:1;stop-color:#000610"
         offset="0"
         id="stop35" />
      <stop
         style="stop-opacity:1;stop-color:#1b63b8"
         offset="1"
         id="stop36" />
    </linearGradient>
    <linearGradient
       x1="0"
       y1="0"
       x2="1"
       y2="0"
       gradientUnits="userSpaceOnUse"
       gradientTransform="matrix(13.758,-13.758,-13.758,-13.758,81.006,64.627)"
       spreadMethod="pad"
       id="linearGradient38">
      <stop
         style="stop-opacity:1;stop-color:#000610"
         offset="0"
         id="stop37" />
      <stop
         style="stop-opacity:1;stop-color:#1b63b8"
         offset="1"
         id="stop38" />
    </linearGradient>
    <linearGradient
       x1="0"
       y1="0"
       x2="1"
       y2="0"
       gradientUnits="userSpaceOnUse"
       gradientTransform="matrix(13.759,-13.759,-13.759,-13.759,78.355,32.046)"
       spreadMethod="pad"
       id="linearGradient44">
      <stop
         style="stop-opacity:1;stop-color:#000610"
         offset="0"
         id="stop43" />
      <stop
         style="stop-opacity:1;stop-color:#1b63b8"
         offset="1"
         id="stop44" />
    </linearGradient>
    <linearGradient
       x1="0"
       y1="0"
       x2="1"
       y2="0"
       gradientUnits="userSpaceOnUse"
       gradientTransform="matrix(13.757,-13.757,-13.757,-13.757,89.219,44.073)"
       spreadMethod="pad"
       id="linearGradient55">
      <stop
         style="stop-opacity:1;stop-color:#000610"
         offset="0"
         id="stop54" />
      <stop
         style="stop-opacity:1;stop-color:#1b63b8"
         offset="1"
         id="stop55" />
    </linearGradient>
    <linearGradient
       x1="0"
       y1="0"
       x2="1"
       y2="0"
       gradientUnits="userSpaceOnUse"
       gradientTransform="matrix(11.537,-11.537,-11.537,-11.537,92.843,53.558)"
       spreadMethod="pad"
       id="linearGradient57">
      <stop
         style="stop-opacity:1;stop-color:#000610"
         offset="0"
         id="stop56" />
      <stop
         style="stop-opacity:1;stop-color:#1b63b8"
         offset="1"
         id="stop57" />
    </linearGradient>
    <linearGradient
       x1="0"
       y1="0"
       x2="1"
       y2="0"
       gradientUnits="userSpaceOnUse"
       gradientTransform="matrix(11.71,-11.71,-11.71,-11.71,97.209,25.724)"
       spreadMethod="pad"
       id="linearGradient59">
      <stop
         style="stop-opacity:1;stop-color:#000610"
         offset="0"
         id="stop58" />
      <stop
         style="stop-opacity:1;stop-color:#1b63b8"
         offset="1"
         id="stop59" />
    </linearGradient>
  </defs>
  <sodipodi:namedview
     id="namedview1"
     pagecolor="#ffffff"
     bordercolor="#000000"
     borderopacity="0.25"
     inkscape:showpageshadow="2"
     inkscape:pageopacity="0.0"
     inkscape:pagecheckerboard="0"
     inkscape:deskcolor="#d1d1d1"
     inkscape:zoom="0.99702381"
     inkscape:cx="335.49851"
     inkscape:cy="62.185075"
     inkscape:window-width="1648"
     inkscape:window-height="787"
     inkscape:window-x="4309"
     inkscape:window-y="458"
     inkscape:window-maximized="0"
     inkscape:current-layer="g1">
    <inkscape:page
       x="0"
       y="0"
       inkscape:label="1"
       id="page1"
       width="672"
       height="124.31867"
       margin="0"
       bleed="0" />
  </sodipodi:namedview>
  <g
     id="g1"
     inkscape:groupmode="layer"
     inkscape:label="1">
    <g
       id="group-MC1">
      <path
         id="path2"
         d="m 0,0 h -2.826 v 13.85 h 2.72 c 4.711,0 10.572,-0.317 10.572,-6.555 C 10.466,0.847 5.024,0 0,0 Z m -30.459,19.991 h -7.9 c -5.737,7.022 -13.946,11.922 -23.415,14.123 h 31.315 z m 0,-15.641 h -0.312 c -1.198,5.291 -3.404,10.032 -6.413,14.124 h 6.725 z m 0,-31.282 h -5.494 c 2.644,4.027 4.536,8.665 5.494,13.857 z m 0,-15.639 h -26.616 c 8.229,2.697 15.219,7.503 20.071,14.124 h 6.545 z m -27.876,14.124 -4.001,-4.001 -4.016,4.001 h 0.016 l -1.516,1.515 h -0.022 l -3.956,3.943 3.262,3.222 c -1.489,-0.453 -3.103,-0.697 -4.82,-0.697 -6.005,0 -10.757,2.916 -13.121,7.657 h 26.222 c -0.309,-0.618 -0.658,-1.206 -1.047,-1.76 l 8.44,-8.439 -4.676,-4.677 z m -31.998,-11.242 -11.125,11.075 0.167,0.167 h 0.023 l 1.516,1.515 h -0.019 l 9.438,9.42 11.092,-11.087 z m -11.971,19.064 c 0,0.771 0.624,1.457 1.457,1.457 0.817,0 1.475,-0.671 1.475,-1.457 0,-0.825 -0.658,-1.444 -1.475,-1.444 -0.833,0 -1.457,0.632 -1.457,1.444 z m 2.932,5.438 c 0,-0.824 -0.658,-1.46 -1.475,-1.46 -0.833,0 -1.457,0.651 -1.457,1.46 0,0.772 0.624,1.44 1.457,1.44 0.817,0 1.475,-0.654 1.475,-1.44 z m -8.521,2.38 h 0.017 l -1.515,1.516 h -0.026 l -5.59,5.559 8.625,8.565 h 0.009 l 1.364,1.364 1.365,-1.364 h 0.001 l 8.576,-8.565 -0.005,-0.005 -9.937,-9.938 z m 15.028,2.906 c 0.817,0 1.475,-0.67 1.475,-1.459 0,-0.825 -0.658,-1.442 -1.475,-1.442 -0.833,0 -1.458,0.635 -1.458,1.442 0,0.772 0.625,1.459 1.458,1.459 z m 0,5.421 c 0.817,0 1.475,-0.653 1.475,-1.442 0,-0.822 -0.658,-1.458 -1.475,-1.458 -0.833,0 -1.458,0.652 -1.458,1.458 0,0.772 0.625,1.442 1.458,1.442 z m 4.338,11.052 c 0.818,0 1.477,-0.67 1.477,-1.458 0,-0.287 -0.08,-0.546 -0.218,-0.764 -0.095,-0.153 -0.22,-0.286 -0.365,-0.391 -0.005,-0.003 -0.009,-0.007 -0.014,-0.011 -0.044,-0.031 -0.09,-0.06 -0.139,-0.087 C -87.79,3.859 -87.794,3.855 -87.798,3.854 -87.851,3.825 -87.905,3.8 -87.962,3.777 h -10e-4 c -0.052,-0.021 -0.105,-0.037 -0.16,-0.051 -0.015,-0.004 -0.03,-0.009 -0.046,-0.012 -0.042,-0.009 -0.085,-0.017 -0.129,-0.025 -0.017,-10e-4 -0.033,-0.004 -0.05,-0.006 -0.059,-0.007 -0.118,-0.012 -0.179,-0.012 -0.061,0 -0.121,0.005 -0.18,0.012 -0.017,0.002 -0.034,0.005 -0.051,0.006 -0.043,0.008 -0.086,0.016 -0.127,0.025 -0.016,0.004 -0.033,0.008 -0.048,0.013 -0.05,0.013 -0.1,0.029 -0.148,0.048 -0.004,0.002 -0.009,0.002 -0.013,0.004 -0.055,0.022 -0.108,0.048 -0.159,0.076 -0.005,0.002 -0.009,0.005 -0.012,0.007 -0.047,0.027 -0.092,0.056 -0.135,0.088 -0.005,0.003 -0.011,0.007 -0.017,0.012 -0.141,0.106 -0.262,0.237 -0.354,0.388 -0.136,0.219 -0.214,0.481 -0.214,0.764 0,0.77 0.627,1.458 1.458,1.458 z m 0,5.422 c 0.818,0 1.477,-0.652 1.477,-1.443 0,-0.823 -0.659,-1.457 -1.477,-1.457 -0.831,0 -1.458,0.651 -1.458,1.457 0,0.773 0.627,1.443 1.458,1.443 z m 21.877,-9.161 1.516,1.517 h -19.808 c 2.552,3.288 6.525,5.405 11.554,5.405 4.066,0 7.436,-1.389 9.93,-3.656 l 7.348,7.273 9.048,-9.022 h -0.023 l 1.516,-1.517 h 0.027 l 0.466,-0.465 -0.014,-0.014 0.037,-0.038 -11.057,-11.057 -2.55,2.551 c -0.073,-1.84 -0.407,-3.549 -0.974,-5.101 h -27.523 c -0.641,1.758 -0.989,3.716 -0.989,5.834 0,3.037 0.764,5.891 2.177,8.29 z M 60.77,-4.383 c 0,8.585 7.014,15.387 15.598,15.387 6.488,0 12.244,-3.664 16.852,-7.955 l -0.838,30.04 c -6.073,2.094 -12.768,3.245 -19.26,3.245 -15.811,0 -29.271,-8.606 -36.211,-21.406 -3.428,13.949 -15.53,20.703 -31.05,20.703 l -224.78,-10e-4 v -1.516 h 133.916 c -9.469,-2.201 -17.677,-7.101 -23.413,-14.123 h -110.503 v -1.517 h 109.327 C -112.6,14.382 -114.807,9.641 -116.006,4.35 H -218.919 V 2.833 h 102.599 c -0.469,-2.512 -0.715,-5.141 -0.715,-7.877 0,-2.159 0.148,-4.241 0.429,-6.247 h -102.313 v -1.516 h 102.552 c 0.942,-5.3 2.853,-10.028 5.543,-14.125 h -108.095 v -1.515 h 109.146 c 4.85,-6.619 11.836,-11.426 20.061,-14.124 h -129.207 v -1.517 h 136.614 l -4.229,4.231 11.123,11.122 11.126,-11.122 -4.23,-4.231 h 65.689 v 24 h 14.654 c 8.926,0 15.997,3.155 20.509,8.767 2.896,-19.432 19.246,-33.778 39.635,-33.778 5.127,0 15.804,0.942 20.41,3.141 l 0.838,29.518 c -4.608,-4.504 -9.842,-7.328 -16.434,-7.328 -8.584,0 -16.016,6.699 -16.016,15.385"
         style="fill:#231f20;fill-opacity:1;fill-rule:nonzero;stroke:none"
         transform="matrix(1.3333333,0,0,-1.3333333,291.892,63.950667)" />
      <path
         id="path3"
         d="m 20.676,80.181 -5.215,5.214 -5.215,-5.214 5.215,-5.216 5.215,5.216"
         transform="matrix(1.3333333,0,0,-1.3333333,0,124.31867)"
         style="fill:url(#linearGradient3);stroke:none" />
      <path
         id="path5"
         d="m 41.164,77.77 -5.215,5.215 -5.214,-5.215 5.214,-5.215 5.215,5.215"
         transform="matrix(1.3333333,0,0,-1.3333333,0,124.31867)"
         style="fill:url(#linearGradient5);stroke:none" />
      <path
         id="path7"
         d="m 33.933,63.551 -5.215,5.214 -5.214,-5.214 5.214,-5.216 5.215,5.216"
         transform="matrix(1.3333333,0,0,-1.3333333,0,124.31867)"
         style="fill:url(#linearGradient7);stroke:none" />
      <path
         id="path9"
         d="m 62.375,32.547 -5.216,5.216 -5.215,-5.216 5.215,-5.216 5.216,5.216"
         transform="matrix(1.3333333,0,0,-1.3333333,0,124.31867)"
         style="fill:url(#linearGradient9);stroke:none" />
      <path
         id="path11"
         d="m 32.97,49.571 -5.215,5.215 -5.217,-5.215 5.217,-5.216 5.215,5.216"
         transform="matrix(1.3333333,0,0,-1.3333333,0,124.31867)"
         style="fill:url(#linearGradient11);stroke:none" />
      <path
         id="path13"
         d="m 45.743,58.006 -5.216,5.215 -5.215,-5.215 5.215,-5.216 5.216,5.216"
         transform="matrix(1.3333333,0,0,-1.3333333,0,124.31867)"
         style="fill:url(#linearGradient13);stroke:none" />
      <path
         id="path15"
         d="m 60.206,71.745 -5.215,5.215 -5.218,-5.215 5.218,-5.215 5.215,5.215"
         transform="matrix(1.3333333,0,0,-1.3333333,0,124.31867)"
         style="fill:url(#linearGradient15);stroke:none" />
      <path
         id="path17"
         d="m 80.18,23.01 -9.662,9.664 -9.664,-9.664 9.664,-9.664 9.662,9.664"
         transform="matrix(1.3333333,0,0,-1.3333333,0,124.31867)"
         style="fill:url(#linearGradient17);stroke:none" />
      <path
         id="path19"
         d="m 51.537,42.328 -7.055,7.054 -7.055,-7.054 7.055,-7.057 7.055,7.057"
         transform="matrix(1.3333333,0,0,-1.3333333,0,124.31867)"
         style="fill:url(#linearGradient19);stroke:none" />
      <path
         id="path21"
         d="m 89.517,74.328 -7.442,7.439 -7.439,-7.439 7.439,-7.442 7.442,7.442"
         transform="matrix(1.3333333,0,0,-1.3333333,0,124.31867)"
         style="fill:url(#linearGradient21);stroke:none" />
      <path
         id="path23"
         d="m 79.153,62.275 -7.439,7.442 -7.443,-7.442 7.443,-7.44 7.439,7.44"
         transform="matrix(1.3333333,0,0,-1.3333333,0,124.31867)"
         style="fill:url(#linearGradient23);stroke:none" />
      <path
         id="path25"
         d="m 109.281,69.266 -7.44,7.44 -7.442,-7.44 7.442,-7.443 7.44,7.443"
         transform="matrix(1.3333333,0,0,-1.3333333,0,124.31867)"
         style="fill:url(#linearGradient25);stroke:none" />
      <path
         id="path27"
         d="m 26.325,88.869 -4.369,4.37 -4.372,-4.37 4.372,-4.372 4.369,4.372"
         transform="matrix(1.3333333,0,0,-1.3333333,0,124.31867)"
         style="fill:url(#linearGradient27);stroke:none" />
      <path
         id="path28"
         d="M 0,0 C 0.816,0 1.475,-0.66 1.475,-1.458 1.475,-2.29 0.816,-2.933 0,-2.933 c -0.833,0 -1.457,0.66 -1.457,1.475 C -1.457,-0.677 -0.833,0 0,0 Z m 0,-5.483 c 0.816,0 1.475,-0.677 1.475,-1.475 0,-0.833 -0.659,-1.459 -1.475,-1.459 -0.833,0 -1.457,0.643 -1.457,1.459 0,0.782 0.624,1.475 1.457,1.475"
         style="fill:#231f20;fill-opacity:1;fill-rule:nonzero;stroke:none"
         transform="matrix(1.3333333,0,0,-1.3333333,26.465333,52.653333)" />
      <path
         id="path29"
         d="m 0,0 c 0.816,0 1.475,-0.658 1.475,-1.457 0,-0.834 -0.659,-1.475 -1.475,-1.475 -0.833,0 -1.457,0.659 -1.457,1.475 C -1.457,-0.677 -0.833,0 0,0 Z m 0,-5.482 c 0.816,0 1.475,-0.678 1.475,-1.475 0,-0.834 -0.659,-1.458 -1.475,-1.458 -0.833,0 -1.457,0.642 -1.457,1.458 0,0.78 0.624,1.475 1.457,1.475"
         style="fill:#231f20;fill-opacity:1;fill-rule:nonzero;stroke:none"
         transform="matrix(1.3333333,0,0,-1.3333333,47.753333,64.222667)" />
      <path
         id="path30"
         d="M 0,0 C 0.816,0 1.477,-0.658 1.477,-1.457 1.477,-2.29 0.816,-2.932 0,-2.932 c -0.833,0 -1.457,0.661 -1.457,1.475 C -1.457,-0.677 -0.833,0 0,0 Z m 0,-5.483 c 0.816,0 1.477,-0.676 1.477,-1.474 0,-0.833 -0.661,-1.458 -1.477,-1.458 -0.833,0 -1.457,0.641 -1.457,1.458 0,0.78 0.624,1.474 1.457,1.474"
         style="fill:#231f20;fill-opacity:1;fill-rule:nonzero;stroke:none"
         transform="matrix(1.3333333,0,0,-1.3333333,84.08,35.762667)" />
      <path
         id="path31"
         d="M 0,0 C 0.816,0 1.475,-0.66 1.475,-1.457 1.475,-2.29 0.816,-2.933 0,-2.933 c -0.831,0 -1.456,0.659 -1.456,1.476 C -1.456,-0.676 -0.831,0 0,0 Z m 0,-5.483 c 0.816,0 1.475,-0.677 1.475,-1.475 0,-0.833 -0.659,-1.458 -1.475,-1.458 -0.831,0 -1.456,0.642 -1.456,1.458 0,0.781 0.625,1.475 1.456,1.475"
         style="fill:#231f20;fill-opacity:1;fill-rule:nonzero;stroke:none"
         transform="matrix(1.3333333,0,0,-1.3333333,125.49867,26.044)" />
      <path
         id="path32"
         d="M 0,0 C 0.814,0 1.475,-0.659 1.475,-1.457 1.475,-2.29 0.814,-2.933 0,-2.933 c -0.833,0 -1.457,0.66 -1.457,1.476 C -1.457,-0.676 -0.833,0 0,0 Z m 0,-5.483 c 0.814,0 1.475,-0.676 1.475,-1.475 0,-0.833 -0.661,-1.458 -1.475,-1.458 -0.833,0 -1.457,0.643 -1.457,1.458 0,0.781 0.624,1.475 1.457,1.475"
         style="fill:#231f20;fill-opacity:1;fill-rule:nonzero;stroke:none"
         transform="matrix(1.3333333,0,0,-1.3333333,101.89733,40.852)" />
      <path
         id="path33"
         d="m 0,0 c 0.814,0 1.473,-0.659 1.473,-1.457 0,-0.835 -0.659,-1.476 -1.473,-1.476 -0.834,0 -1.459,0.659 -1.459,1.476 C -1.459,-0.678 -0.834,0 0,0 Z m 0,-5.483 c 0.814,0 1.473,-0.676 1.473,-1.476 0,-0.831 -0.659,-1.457 -1.473,-1.457 -0.834,0 -1.459,0.643 -1.459,1.457 0,0.781 0.625,1.476 1.459,1.476"
         style="fill:#231f20;fill-opacity:1;fill-rule:nonzero;stroke:none"
         transform="matrix(1.3333333,0,0,-1.3333333,63.489333,54.272)" />
      <path
         id="path34"
         d="m 56.223,51.078 c 0,-0.817 0.625,-1.476 1.458,-1.476 0.815,0 1.475,0.642 1.475,1.476 0,0.798 -0.66,1.457 -1.475,1.457 -0.833,0 -1.458,-0.678 -1.458,-1.457 z m 0,-5.502 c 0,-0.814 0.625,-1.457 1.458,-1.457 0.815,0 1.475,0.626 1.475,1.457 0,0.8 -0.66,1.476 -1.475,1.476 -0.833,0 -1.458,-0.695 -1.458,-1.476 z m 2.727,-7.404 -9.663,9.664 9.663,9.663 9.662,-9.663 -9.662,-9.664"
         transform="matrix(1.3333333,0,0,-1.3333333,0,124.31867)"
         style="fill:url(#linearGradient34);stroke:none" />
      <path
         id="path36"
         d="m 73.577,45.855 c 0,-0.816 0.626,-1.473 1.457,-1.473 0.816,0 1.476,0.641 1.476,1.473 0,0.798 -0.66,1.458 -1.476,1.458 -0.831,0 -1.457,-0.676 -1.457,-1.458 z m 0,-5.499 c 0,-0.817 0.626,-1.458 1.457,-1.458 0.816,0 1.476,0.623 1.476,1.458 0,0.797 -0.66,1.474 -1.476,1.474 -0.831,0 -1.457,-0.694 -1.457,-1.474 z m 2.726,-7.88 -9.664,9.665 9.664,9.664 9.663,-9.664 -9.663,-9.665"
         transform="matrix(1.3333333,0,0,-1.3333333,0,124.31867)"
         style="fill:url(#linearGradient36);stroke:none" />
      <path
         id="path38"
         d="m 87.981,58.011 c 0,-0.816 0.624,-1.476 1.458,-1.476 0.815,0 1.474,0.643 1.474,1.476 0,0.798 -0.659,1.458 -1.474,1.458 -0.834,0 -1.458,-0.678 -1.458,-1.458 z m 0,-5.5 c 0,-0.817 0.624,-1.459 1.458,-1.459 0.815,0 1.474,0.626 1.474,1.459 0,0.797 -0.659,1.474 -1.474,1.474 -0.834,0 -1.458,-0.694 -1.458,-1.474 z m -0.109,-4.411 -9.664,9.662 9.664,9.664 9.663,-9.664 -9.663,-9.662"
         transform="matrix(1.3333333,0,0,-1.3333333,0,124.31867)"
         style="fill:url(#linearGradient38);stroke:none" />
      <path
         id="path39"
         d="m 0,0 c 0.816,0 1.475,-0.659 1.475,-1.456 0,-0.833 -0.659,-1.476 -1.475,-1.476 -0.835,0 -1.457,0.659 -1.457,1.476 C -1.457,-0.676 -0.835,0 0,0 Z m 0,-5.482 c 0.816,0 1.475,-0.677 1.475,-1.475 0,-0.834 -0.659,-1.459 -1.475,-1.459 -0.835,0 -1.457,0.642 -1.457,1.459 0,0.781 0.622,1.475 1.457,1.475"
         style="fill:#231f20;fill-opacity:1;fill-rule:nonzero;stroke:none"
         transform="matrix(1.3333333,0,0,-1.3333333,149.33067,65.842667)" />
      <path
         id="path40"
         d="m 0,0 c 0.815,0 1.473,-0.658 1.473,-1.454 0,-0.835 -0.658,-1.477 -1.473,-1.477 -0.835,0 -1.458,0.658 -1.458,1.477 C -1.458,-0.674 -0.835,0 0,0 Z m 0,-5.482 c 0.815,0 1.473,-0.677 1.473,-1.474 0,-0.833 -0.658,-1.458 -1.473,-1.458 -0.835,0 -1.458,0.641 -1.458,1.458 0,0.78 0.623,1.474 1.458,1.474"
         style="fill:#231f20;fill-opacity:1;fill-rule:nonzero;stroke:none"
         transform="matrix(1.3333333,0,0,-1.3333333,166.68533,97.542667)" />
      <path
         id="path41"
         d="m 0,0 c 0.817,0 1.476,-0.66 1.476,-1.459 0,-0.832 -0.659,-1.473 -1.476,-1.473 -0.834,0 -1.459,0.659 -1.459,1.473 C -1.459,-0.678 -0.834,0 0,0 Z m 0,-5.483 c 0.817,0 1.476,-0.677 1.476,-1.476 0,-0.832 -0.659,-1.457 -1.476,-1.457 -0.834,0 -1.459,0.642 -1.459,1.457 0,0.781 0.625,1.476 1.459,1.476"
         style="fill:#231f20;fill-opacity:1;fill-rule:nonzero;stroke:none"
         transform="matrix(1.3333333,0,0,-1.3333333,206.02,86.897333)" />
      <path
         id="path42"
         d="m 0,0 c 0.816,0 1.475,-0.659 1.475,-1.458 0,-0.833 -0.659,-1.475 -1.475,-1.475 -0.831,0 -1.457,0.659 -1.457,1.475 C -1.457,-0.676 -0.831,0 0,0 Z m 0,-5.484 c 0.816,0 1.475,-0.676 1.475,-1.474 0,-0.833 -0.659,-1.457 -1.475,-1.457 -0.831,0 -1.457,0.641 -1.457,1.457 0,0.781 0.626,1.474 1.457,1.474"
         style="fill:#231f20;fill-opacity:1;fill-rule:nonzero;stroke:none"
         transform="matrix(1.3333333,0,0,-1.3333333,63.254667,24.656)" />
      <path
         id="path43"
         d="m 0,0 c 0.816,0 1.475,-0.659 1.475,-1.458 0,-0.833 -0.659,-1.473 -1.475,-1.473 -0.831,0 -1.457,0.659 -1.457,1.473 C -1.457,-0.677 -0.831,0 0,0 Z m 0,-5.483 c 0.816,0 1.475,-0.676 1.475,-1.475 0,-0.833 -0.659,-1.459 -1.475,-1.459 -0.831,0 -1.457,0.645 -1.457,1.459 0,0.78 0.626,1.475 1.457,1.475"
         style="fill:#231f20;fill-opacity:1;fill-rule:nonzero;stroke:none"
         transform="matrix(1.3333333,0,0,-1.3333333,97.501333,84.814667)" />
      <path
         id="path44"
         d="m 82.948,29.731 c 0,-0.814 0.625,-1.474 1.46,-1.474 0.814,0 1.472,0.643 1.472,1.474 0,0.8 -0.658,1.458 -1.472,1.458 -0.835,0 -1.46,-0.675 -1.46,-1.458 z m 0,-5.5 c 0,-0.817 0.625,-1.458 1.46,-1.458 0.814,0 1.472,0.625 1.472,1.458 0,0.798 -0.658,1.474 -1.472,1.474 -0.835,0 -1.46,-0.693 -1.46,-1.474 z m 2.274,-8.716 -9.663,9.665 9.663,9.662 9.662,-9.662 -9.662,-9.665"
         transform="matrix(1.3333333,0,0,-1.3333333,0,124.31867)"
         style="fill:url(#linearGradient44);stroke:none" />
      <path
         id="path45"
         d="M 0,0 C 0,0.417 0.325,0.743 0.716,0.743 1.106,0.743 1.443,0.405 1.443,0 1.443,-0.48 0.988,-0.702 0.716,-0.702 0.444,-0.702 0,-0.493 0,0 Z m 0,4.673 c 0,0.415 0.325,0.741 0.716,0.741 0.39,0 0.727,-0.338 0.727,-0.741 C 1.443,4.191 0.988,3.97 0.716,3.97 0.444,3.97 0,4.177 0,4.673"
         style="fill:#231f20;fill-opacity:1;fill-rule:nonzero;stroke:none"
         transform="matrix(1.3333333,0,0,-1.3333333,87.430667,27.194667)" />
      <path
         id="path46"
         d="m 0,0 c 0.816,0 1.475,-0.659 1.475,-1.458 0,-0.831 -0.659,-1.474 -1.475,-1.474 -0.833,0 -1.459,0.659 -1.459,1.474 C -1.459,-0.678 -0.833,0 0,0 Z m 0,-5.483 c 0.816,0 1.475,-0.676 1.475,-1.476 0,-0.832 -0.659,-1.457 -1.475,-1.457 -0.833,0 -1.459,0.642 -1.459,1.457 0,0.781 0.626,1.476 1.459,1.476"
         style="fill:#231f20;fill-opacity:1;fill-rule:nonzero;stroke:none"
         transform="matrix(1.3333333,0,0,-1.3333333,98.890667,18.870667)" />
      <path
         id="path47"
         d="M 0,0 C 0,0.462 0.361,0.822 0.794,0.822 1.229,0.822 1.605,0.448 1.605,0 1.605,-0.536 1.1,-0.782 0.794,-0.782 0.491,-0.782 0,-0.553 0,0 Z M 0,5.19 C 0,5.652 0.361,6.015 0.794,6.015 1.229,6.015 1.605,5.638 1.605,5.19 1.605,4.655 1.1,4.409 0.794,4.409 0.491,4.409 0,4.641 0,5.19"
         style="fill:#231f20;fill-opacity:1;fill-rule:nonzero;stroke:none"
         transform="matrix(1.3333333,0,0,-1.3333333,67.225333,83.797333)" />
      <path
         id="path48"
         d="M 0,0 C 0.815,0 1.473,-0.657 1.473,-1.458 1.473,-2.289 0.815,-2.93 0,-2.93 c -0.834,0 -1.458,0.658 -1.458,1.472 C -1.458,-0.676 -0.834,0 0,0 Z m 0,-5.484 c 0.815,0 1.473,-0.676 1.473,-1.474 0,-0.833 -0.658,-1.458 -1.473,-1.458 -0.834,0 -1.458,0.642 -1.458,1.458 0,0.781 0.624,1.474 1.458,1.474"
         style="fill:#231f20;fill-opacity:1;fill-rule:nonzero;stroke:none"
         transform="matrix(1.3333333,0,0,-1.3333333,79.222667,90.6)" />
      <path
         id="path49"
         d="M 0,0 C 0,0.463 0.361,0.825 0.796,0.825 1.229,0.825 1.605,0.448 1.605,0 1.605,-0.535 1.1,-0.781 0.796,-0.781 0.49,-0.781 0,-0.55 0,0 Z M 0,5.191 C 0,5.654 0.361,6.016 0.796,6.016 1.229,6.016 1.605,5.64 1.605,5.191 1.605,4.657 1.1,4.411 0.796,4.411 0.49,4.411 0,4.642 0,5.191"
         style="fill:#231f20;fill-opacity:1;fill-rule:nonzero;stroke:none"
         transform="matrix(1.3333333,0,0,-1.3333333,39.46,20.862667)" />
      <path
         id="path50"
         d="M 0,0 C 0,0.37 0.291,0.66 0.637,0.66 0.985,0.66 1.286,0.358 1.286,0 1.286,-0.429 0.88,-0.625 0.637,-0.625 0.395,-0.625 0,-0.441 0,0 Z m 0,4.154 c 0,0.369 0.291,0.659 0.637,0.659 0.348,0 0.649,-0.3 0.649,-0.659 C 1.286,3.725 0.88,3.529 0.637,3.529 0.395,3.529 0,3.713 0,4.154"
         style="fill:#231f20;fill-opacity:1;fill-rule:nonzero;stroke:none"
         transform="matrix(1.3333333,0,0,-1.3333333,20.865333,7.1453333)" />
      <path
         id="path51"
         d="M 0,0 C 0,0.416 0.327,0.742 0.717,0.742 1.109,0.742 1.445,0.402 1.445,0 1.445,-0.481 0.99,-0.703 0.717,-0.703 0.442,-0.703 0,-0.495 0,0 Z M 0,4.67 C 0,5.088 0.327,5.413 0.717,5.413 1.109,5.413 1.445,5.074 1.445,4.67 1.445,4.19 0.99,3.969 0.717,3.969 0.442,3.969 0,4.177 0,4.67"
         style="fill:#231f20;fill-opacity:1;fill-rule:nonzero;stroke:none"
         transform="matrix(1.3333333,0,0,-1.3333333,48.093333,42.002667)" />
      <path
         id="path52"
         d="M 0,0 C 0,0.417 0.324,0.742 0.716,0.742 1.105,0.742 1.443,0.404 1.443,0 1.443,-0.481 0.99,-0.702 0.716,-0.702 0.442,-0.702 0,-0.494 0,0 Z M 0,4.672 C 0,5.088 0.324,5.414 0.716,5.414 1.105,5.414 1.443,5.077 1.443,4.672 1.443,4.191 0.99,3.969 0.716,3.969 0.442,3.969 0,4.177 0,4.672"
         style="fill:#231f20;fill-opacity:1;fill-rule:nonzero;stroke:none"
         transform="matrix(1.3333333,0,0,-1.3333333,28.194667,41.772)" />
      <path
         id="path53"
         d="M 0,0 C 0,0.417 0.3257,0.743 0.714,0.743 1.107,0.743 1.446,0.405 1.446,0 1.446,-0.482 0.988,-0.703 0.714,-0.703 0.4424,-0.703 0,-0.495 0,0 Z M 0,4.672 C 0,5.088 0.3257,5.414 0.714,5.414 1.107,5.414 1.446,5.076 1.446,4.672 1.446,4.19 0.988,3.968 0.714,3.968 0.4424,3.968 0,4.177 0,4.672"
         style="fill:#231f20;fill-opacity:1;fill-rule:nonzero;stroke:none"
         transform="matrix(1.3333333,0,0,-1.3333333,12.693333,20.948)" />
      <path
         id="path54"
         d="M 0,0 C 0.816,0 1.475,-0.659 1.475,-1.456 1.475,-2.29 0.816,-2.932 0,-2.932 c -0.833,0 -1.456,0.659 -1.456,1.476 C -1.456,-0.676 -0.833,0 0,0 Z m 0,-5.484 c 0.816,0 1.475,-0.675 1.475,-1.474 0,-0.832 -0.659,-1.456 -1.475,-1.456 -0.833,0 -1.456,0.641 -1.456,1.456 0,0.781 0.623,1.474 1.456,1.474"
         style="fill:#231f20;fill-opacity:1;fill-rule:nonzero;stroke:none"
         transform="matrix(1.3333333,0,0,-1.3333333,212.768,54.438667)" />
      <path
         id="path55"
         d="m 96.539,39.242 c 0,-0.816 0.624,-1.459 1.458,-1.459 0.815,0 1.473,0.625 1.473,1.459 0,0.797 -0.658,1.475 -1.473,1.475 -0.834,0 -1.458,-0.696 -1.458,-1.475 z m -0.456,-11.696 -9.664,9.663 9.664,9.664 0.502,-3.85 3.052,0.293 6.109,-6.107 -9.663,-9.663"
         transform="matrix(1.3333333,0,0,-1.3333333,0,124.31867)"
         style="fill:url(#linearGradient55);stroke:none" />
      <path
         id="path57"
         d="m 96.539,44.742 c 0,-0.816 0.624,-1.475 1.458,-1.475 0.815,0 1.473,0.642 1.473,1.475 0,0.798 -0.658,1.457 -1.473,1.457 -0.834,0 -1.458,-0.677 -1.458,-1.457 z m 2.058,-4.378 -7.442,7.442 7.442,7.44 7.44,-7.44 -7.44,-7.442"
         transform="matrix(1.3333333,0,0,-1.3333333,0,124.31867)"
         style="fill:url(#linearGradient57);stroke:none" />
      <path
         id="path59"
         d="m 112.72,19.877 -9.663,9.662 -9.664,-9.662 9.664,-9.662 9.663,9.662"
         transform="matrix(1.3333333,0,0,-1.3333333,0,124.31867)"
         style="fill:url(#linearGradient59);stroke:none" />
      <path
         id="path60"
         d="m 0,0 v -47.105 c 0,-23.234 -14.578,-33.799 -36.867,-33.799 -22.283,0 -36.86,10.565 -36.86,33.799 V 0 h 28.938 v -44.358 c 0,-6.231 0.215,-11.726 7.922,-11.726 7.713,0 7.928,5.495 7.928,11.726 l 0,44.358 H 0"
         style="fill:#231f20;fill-opacity:1;fill-rule:nonzero;stroke:none"
         transform="matrix(1.3333333,0,0,-1.3333333,560.38267,16.446667)" />
      <path
         id="path61"
         d="M 0,0 C 0,0 -4.756,20.911 -5.281,24.291 H -6.34 L -11.619,0 Z M -19.117,-28.836 H -49.752 L -22.076,50.8 h 32 L 38.338,-28.836 H 7.705 l -2.639,9.93 h -21.863 l -2.32,-9.93"
         style="fill:#231f20;fill-opacity:1;fill-rule:nonzero;stroke:none"
         transform="matrix(1.3333333,0,0,-1.3333333,620.88267,84.198667)" />
      <path
         id="path62"
         d="M 0,0 H 0.516 C 0.791,0 0.997,0.026 1.128,0.079 1.357,0.17 1.464,0.332 1.464,0.59 1.464,0.834 1.397,0.991 1.258,1.068 1.102,1.155 0.841,1.199 0.483,1.199 H 0 Z M 2.39,-2.199 H 1.519 l -0.022,0.071 c -0.003,0.014 -0.007,0.028 -0.01,0.042 -0.004,0.013 -0.008,0.03 -0.012,0.05 l -0.016,0.131 v 0.318 c 0,0.405 -0.106,0.674 -0.315,0.798 C 1.017,-0.717 0.78,-0.68 0.438,-0.68 H 0 v -1.519 h -0.878 v 4.063 h 1.45 C 1.069,1.864 1.426,1.816 1.664,1.717 2.103,1.534 2.325,1.174 2.325,0.646 2.325,0.266 2.183,-0.019 1.903,-0.201 1.835,-0.244 1.757,-0.282 1.667,-0.314 1.821,-0.387 1.944,-0.491 2.036,-0.625 2.186,-0.846 2.262,-1.066 2.262,-1.28 v -0.282 c 0,-0.088 0.004,-0.182 0.01,-0.282 C 2.281,-1.97 2.293,-2 2.295,-2.005 Z M 0.639,2.752 c -0.802,0 -1.497,-0.29 -2.065,-0.862 -0.567,-0.569 -0.854,-1.266 -0.854,-2.072 0,-0.813 0.286,-1.514 0.849,-2.086 0.565,-0.571 1.262,-0.861 2.07,-0.861 0.809,0 1.506,0.29 2.071,0.861 0.566,0.572 0.853,1.274 0.853,2.086 C 3.563,0.624 3.276,1.32 2.71,1.89 2.141,2.462 1.444,2.752 0.639,2.752 Z m 0,-6.561 c -0.997,0 -1.857,0.359 -2.558,1.065 -0.696,0.704 -1.049,1.567 -1.049,2.567 0,0.99 0.356,1.849 1.059,2.553 0.699,0.7 1.557,1.055 2.548,1.055 0.997,0 1.859,-0.355 2.563,-1.055 0.703,-0.7 1.059,-1.559 1.059,-2.553 0,-0.997 -0.356,-1.861 -1.058,-2.567 C 2.498,-3.45 1.636,-3.809 0.639,-3.809"
         style="fill:#231f20;fill-opacity:1;fill-rule:nonzero;stroke:none"
         transform="matrix(1.3333333,0,0,-1.3333333,644.64267,20.906667)" />
    </g>
  </g>
</svg>
