<?xml version="1.0" encoding="utf-8"?>
<!-- Generator: Adobe Illustrator 23.0.6, SVG Export Plug-In . SVG Version: 6.00 Build 0)  -->
<svg version="1.1" id="Layer_1" xmlns="http://www.w3.org/2000/svg" xmlns:xlink="http://www.w3.org/1999/xlink" x="0px" y="0px"
	 viewBox="0 0 180.6 200.8" style="enable-background:new 0 0 180.6 200.8;" xml:space="preserve">
<style type="text/css">
	.st0{opacity:0.7;fill:#005A9C;}
	.st1{fill:#005A9C;}
	.st2{fill:#FFFFFF;}
</style>
<path class="st0" d="M148,131.6h-20.7L94.7,101l36.2-38.6l2.7,4.7c1.6,2.7,5.5,2.7,7.1,0l10.9-18.8c1.6-2.7-0.4-6.2-3.6-6.2h-21.7
	c-3.2,0-5.1,3.4-3.6,6.2l5.5,9.5L93.6,94.7V68.9c6.2-1.2,10.9-6.7,10.9-13.3c0-7.5-6-13.5-13.5-13.5s-13.5,6-13.5,13.5
	c0,6.6,4.7,12.1,11,13.3v26.3L57.7,66.4c0.5-0.9,0.8-1.9,0.8-3V50.8v-2.9c0-3.2-2.6-5.8-5.8-5.8H37.2c-3.2,0-5.8,2.6-5.8,5.8V51
	v12.4c0,3.2,2.6,5.8,5.8,5.8h3.7h8.5h3.3c0.1,0,0.3,0,0.4,0l34.3,32.1L54.9,136c-2.5-2.7-6-4.4-9.9-4.4c-7.5,0-13.5,6-13.5,13.5
	s6,13.5,13.5,13.5s13.5-6,13.5-13.5c0-1.6-0.3-3.1-0.8-4.6l30.8-32.9v24h-5.2c-3.2,0-5.8,2.6-5.8,5.8v3.1v12.4
	c0,3.2,2.6,5.8,5.8,5.8H87h8.5h3.3c3.2,0,5.8-2.6,5.8-5.8v-12.6v-2.9c0-3.2-2.6-5.8-5.8-5.8h-5.2v-24.5l28.9,27.1
	c-0.5,1.1-0.5,2.4,0.2,3.6l10.9,18.8c1.6,2.7,5.5,2.7,7.1,0l10.9-18.8C153.1,135,151.2,131.6,148,131.6z"/>
<path class="st1" d="M157.3,79.7h-23.4c-5.4,0-9.7,4.4-9.7,9.7v7.7h-12c-1.9-9.9-10.6-17.4-21.1-17.4c-10.4,0-19.2,7.5-21.1,17.4
	H56.1l3.8-6.6c1.3-2.3,1.3-5,0-7.2c-1.3-2.3-3.6-3.6-6.3-3.6H20.8c-2.6,0-4.9,1.3-6.3,3.6c-1.3,2.3-1.3,5,0,7.2L31,119
	c1.3,2.3,3.6,3.6,6.3,3.6l0,0c2.6,0,4.9-1.3,6.3-3.6l8-13.8H70c1.9,9.9,10.6,17.4,21.1,17.4c10.4,0,19.2-7.5,21.1-17.4h12v7.7
	c0,5.4,4.4,9.7,9.7,9.7h23.4c5.4,0,9.7-4.4,9.7-9.7V89.5C167,84.1,162.7,79.7,157.3,79.7z"/>
<polygon class="st2" points="52.6,87.6 42.6,87.6 31.9,87.6 21.9,87.6 32.2,105.5 37.2,96.8 42.2,105.5 "/>
<path class="st1" d="M37.2,91.3c2.1,0,3.8,1.1,4.8,2.8l1.6-0.9c-1.3-2.2-3.7-3.7-6.4-3.7s-5.1,1.5-6.4,3.7l1.6,0.9
	C33.4,92.4,35.2,91.3,37.2,91.3z"/>
<path class="st1" d="M37.2,95c0.7,0,1.3,0.4,1.6,0.9l1.6-0.9c-0.6-1.1-1.8-1.9-3.2-1.9S34.7,93.9,34,95l1.6,0.9
	C36,95.3,36.6,95,37.2,95z"/>
<path class="st2" d="M103.9,106L103.9,106l-2-0.7l-0.4-0.1l0,0c0.4-1.2,0.7-2.5,0.7-3.8l0,0h2.5c0-0.6-0.1-1.1-0.1-1.7
	c0-0.2,0-0.4-0.1-0.7c-0.1-0.8-0.4-1.6-0.6-2.3l-2.3,0.9c-0.3-0.7-0.6-1.4-1-2.1c-0.3-0.4-0.6-0.9-0.9-1.3l1.9-1.6
	c-0.5-0.6-1.1-1.2-1.7-1.7s-1.3-1-1.9-1.4l-1.2,2.2c-0.5-0.3-1-0.5-1.5-0.7c-0.7-0.3-1.4-0.5-2.1-0.6l0.4-2.5
	c-0.8-0.1-1.6-0.2-2.4-0.2c-0.2,0-0.4,0-0.6,0c-0.6,0-1.2,0.1-1.7,0.2l0.4,2.5l0,0c-1.3,0.2-2.5,0.7-3.6,1.3l-1.2-2.2
	c-1.4,0.8-2.6,1.8-3.6,3l1.9,1.6c-0.8,1-1.5,2.1-1.9,3.3l-2.3-0.9l0,0l0,0c-0.2,0.7-0.4,1.4-0.6,2.1c0,0.1,0,0.2-0.1,0.2
	c0,0.1,0,0.1,0,0.2c-0.1,0.7-0.2,1.4-0.2,2.2l0,0l0,0h2.5c0,1.3,0.2,2.6,0.7,3.8l-2.3,0.9c0.5,1.5,1.3,2.9,2.4,4.1l1.9-1.6
	c0.8,1,1.8,1.8,2.9,2.5l-1.2,2.2c0.7,0.4,1.4,0.7,2.1,1c0.8,0.3,1.5,0.5,2.3,0.6l0.4-2.5c1.3,0.2,2.6,0.2,3.9,0l0.3,1.7l0.1,0.8
	c1.2-0.2,2.3-0.6,3.3-1.1l0,0c0.1,0,0.2-0.1,0.2-0.1c0.3-0.1,0.6-0.3,0.8-0.4l0,0l0,0l-1.2-2.2c0.6-0.3,1.1-0.7,1.6-1.1
	s1-0.9,1.4-1.4l1.9,1.6c0.2-0.2,0.3-0.4,0.5-0.6C102.8,108.4,103.4,107.3,103.9,106L103.9,106z"/>
<g>
	<path class="st1" d="M61.6,30.2c-0.2,0.6-0.8,1-1.4,1c-0.6,0-1.2-0.4-1.4-1l-2.5-8.6l-2.5,8.6c-0.2,0.6-0.8,1-1.4,1
		c-0.6,0-1.2-0.4-1.4-1c-0.5-1.4-4.3-12.9-4.3-13.6c0-0.8,0.7-1.5,1.5-1.5c0.6,0,1.2,0.4,1.4,1l2.8,8.8l2.5-8.8c0.2-0.6,0.7-1,1.3-1
		s1.2,0.4,1.3,1l2.5,8.8l2.8-8.8c0.2-0.6,0.8-1,1.4-1c0.8,0,1.5,0.7,1.5,1.5C65.9,17.3,62.1,28.8,61.6,30.2z"/>
	<path class="st1" d="M78.7,31c-8.9,0-8.9,0-8.9,0c-0.9,0-1.6-0.7-1.6-1.6V16.9c0-0.9,0.7-1.5,1.6-1.5h8.5c0.8,0,1.5,0.7,1.5,1.5
		s-0.7,1.5-1.5,1.5h-7v3.4h3.9c0.8,0,1.5,0.7,1.5,1.5s-0.7,1.5-1.5,1.5h-3.9v3.5h7.3c0.8,0,1.5,0.7,1.5,1.5
		C80.2,30.4,79.5,31,78.7,31z"/>
	<path class="st1" d="M90,31h-5.6c-0.9,0-1.6-0.7-1.6-1.6V16.9c0-0.9,0.7-1.5,1.6-1.5h5.4c3.2,0,5,1.5,5,3.8c0,1.6-0.8,2.8-2.1,3.5
		c1.9,0.6,2.9,2.2,2.9,3.9C95.7,29.1,93.6,31,90,31z M90.1,18.3H86v3.1h4.1c1.1,0,1.7-0.8,1.7-1.6S91.2,18.3,90.1,18.3z M90.4,24.2
		H86v3.9h4.4c1.5,0,2.2-1.1,2.2-2S91.9,24.2,90.4,24.2z"/>
	<path class="st1" d="M112.6,31.3c-4.5,0-8-3.6-8-8.1s3.5-8.1,8-8.1s8,3.6,8,8.1S117.2,31.3,112.6,31.3z M112.6,18
		c-2.9,0-4.9,2.3-4.9,5.2s2,5.2,4.9,5.2s4.9-2.3,4.9-5.2S115.6,18,112.6,18z"/>
	<path class="st1" d="M133.9,18.3h-7.2v3.4h4.1c0.8,0,1.5,0.7,1.5,1.5s-0.7,1.5-1.5,1.5h-4.1v5c0,0.9-0.7,1.5-1.6,1.5
		s-1.6-0.7-1.6-1.5V16.9c0-0.9,0.7-1.5,1.6-1.5h8.7c0.8,0,1.5,0.7,1.5,1.5C135.4,17.7,134.7,18.3,133.9,18.3z"/>
</g>
<g>
	<path class="st1" d="M59.8,172.7h-4.3V184c0,0.9-0.7,1.6-1.6,1.6c-0.9,0-1.5-0.7-1.5-1.6v-11.3H48c-0.8,0-1.5-0.7-1.5-1.5
		s0.6-1.5,1.5-1.5h11.7c0.8,0,1.5,0.7,1.5,1.5C61.3,172.1,60.6,172.7,59.8,172.7z"/>
	<path class="st1" d="M75.1,185.6c-0.9,0-1.6-0.7-1.6-1.6v-5.2h-7.1v5.2c0,0.9-0.7,1.6-1.5,1.6c-0.9,0-1.6-0.7-1.6-1.6v-12.9
		c0-0.9,0.7-1.6,1.6-1.6s1.5,0.7,1.5,1.6v4.7h7.1v-4.7c0-0.9,0.7-1.6,1.6-1.6s1.6,0.7,1.6,1.6V184C76.6,184.9,75.9,185.6,75.1,185.6
		z"/>
	<path class="st1" d="M82.4,185.6c-0.9,0-1.6-0.7-1.6-1.6v-12.9c0-0.9,0.7-1.6,1.6-1.6s1.5,0.7,1.5,1.6V184
		C83.9,184.9,83.2,185.6,82.4,185.6z"/>
	<path class="st1" d="M99.8,185.6c-0.5,0-0.8-0.2-1.1-0.5l-7.7-10v9.1c0,0.8-0.7,1.5-1.5,1.5S88,185,88,184.2v-13.1
		c0-0.7,0.6-1.5,1.5-1.5c0.4,0,0.8,0.2,1.1,0.5l7.7,10V171c0-0.8,0.7-1.5,1.5-1.5s1.5,0.7,1.5,1.5v13.1
		C101.2,185,100.6,185.6,99.8,185.6z"/>
	<path class="st1" d="M118.6,183c-1.5,1.9-4.1,2.7-6.4,2.7c-4.5,0-8-3.6-8-8.1s3.5-8.1,8-8.1c1.9,0,3.9,0.5,5.3,1.8
		c0.3,0.3,0.5,0.7,0.5,1.1c0,0.8-0.7,1.4-1.4,1.4c-1.1,0-1.8-1.5-4.3-1.5c-3,0-4.9,2.4-4.9,5.2c0,2.9,1.9,5.2,4.9,5.2
		c1.2,0,2.7-0.3,3.6-1.2v-2.2H113c-0.8,0-1.4-0.6-1.4-1.4c0-0.8,0.7-1.4,1.4-1.4h4.5c0.9,0,1.6,0.7,1.6,1.6v3.9
		C119,182.5,118.9,182.7,118.6,183z"/>
	<path class="st1" d="M127.9,185.7c-1.6,0-6.8-0.8-6.8-2.9c0-0.8,0.7-1.5,1.4-1.5c0.3,0,0.5,0.1,0.7,0.2c1.6,0.8,2.9,1.3,4.7,1.3
		c1.1,0,3.4-0.2,3.4-1.7c0-2.9-9.3-1.4-9.3-7.3c0-3.5,3.5-4.3,6.3-4.3c1.5,0,3.9,0.3,5.1,1c0.5,0.3,0.9,0.7,0.9,1.3
		c0,0.8-0.7,1.5-1.5,1.5c-0.2,0-0.4,0-0.6-0.1c-1.3-0.5-2.6-0.8-4-0.8c-1,0-3.2,0-3.2,1.5s3.8,2.3,4.8,2.6c2.4,0.7,4.5,1.7,4.5,4.5
		C134.5,184.7,131,185.7,127.9,185.7z"/>
</g>
<polygon class="st2" points="140.8,107.1 135.6,110.1 135.6,104 "/>
<polygon class="st2" points="132,87.7 132,95.1 141.9,95.1 141.9,97.6 144.4,97.6 144.4,99.4 141.9,99.4 141.9,101.9 144.4,101.9 
	144.4,103.7 141.9,103.7 141.9,106.2 144.4,106.2 144.4,108 141.9,108 141.9,110.4 144.2,110.4 144.2,112.3 141.9,112.3 
	141.9,114.7 149.3,114.7 149.3,95.1 159.2,95.1 159.2,87.7 "/>
</svg>
